<svg xmlns="http://www.w3.org/2000/svg" version="1.1" viewBox="0.00 0.00 200.00 183.00" width="200.00" height="183.00">
<path stroke="#afafaf" stroke-width="2.00" fill="none" stroke-linecap="butt" vector-effect="non-scaling-stroke" d="&#10;  M 58.51 98.34&#10;  L 38.24 123.15&#10;  A 0.36 0.36 0.0 0 0 38.68 123.70&#10;  L 72.96 106.23&#10;  A 1.35 1.34 64.9 0 0 73.58 104.50&#10;  L 64.16 82.53&#10;  Q 63.92 81.97 64.32 81.51&#10;  L 78.37 65.18&#10;  A 0.21 0.21 0.0 0 0 78.09 64.86&#10;  L 42.08 88.29&#10;  A 0.43 0.43 0.0 0 0 42.12 89.03&#10;  L 58.34 97.51&#10;  Q 58.93 97.83 58.51 98.34"/>
<path fill="#757575" d="&#10;  M 162.96 70.62&#10;  C 145.72 81.75 132.44 102.17 124.89 120.87&#10;  Q 124.72 121.29 124.26 121.22&#10;  C 114.39 119.57 111.89 104.39 112.75 96.00&#10;  Q 114.95 74.56 131.19 62.72&#10;  C 140.75 55.75 154.19 53.18 165.31 48.01&#10;  Q 181.67 40.42 193.96 28.93&#10;  Q 196.69 26.38 195.33 29.86&#10;  C 190.56 42.03 191.43 55.13 193.42 69.61&#10;  Q 193.48 70.10 193.91 70.35&#10;  C 196.93 72.13 197.76 74.09 197.76 77.72&#10;  Q 197.76 93.53 197.73 109.31&#10;  C 197.72 119.31 190.44 116.88 183.81 117.32&#10;  A 0.61 0.61 0.0 0 0 183.24 117.93&#10;  C 183.30 128.74 186.70 145.57 169.95 145.72&#10;  Q 155.22 145.85 140.48 146.01&#10;  C 137.93 146.03 132.91 145.51 134.83 141.39&#10;  Q 135.60 139.76 137.00 139.75&#10;  Q 153.75 139.75 170.50 139.75&#10;  C 178.89 139.75 177.47 128.77 177.19 123.40&#10;  A 0.48 0.48 0.0 0 0 176.40 123.06&#10;  C 163.47 134.25 152.04 134.95 136.32 129.03&#10;  A 0.73 0.72 20.3 0 0 135.38 129.46&#10;  C 125.68 156.71 102.11 177.06 72.67 179.64&#10;  C 56.18 181.09 36.04 176.54 22.18 167.07&#10;  C 7.93 157.33 2.44 140.02 1.82 122.56&#10;  C 1.06 100.99 1.62 78.35 1.53 57.76&#10;  C 1.49 48.27 7.05 43.49 15.97 43.49&#10;  Q 83.72 43.51 151.47 43.50&#10;  C 154.10 43.50 156.20 44.50 155.34 47.53&#10;  A 2.68 2.67 7.8 0 1 152.78 49.47&#10;  Q 84.41 49.94 15.69 49.70&#10;  C 10.77 49.69 8.03 51.51 8.02 56.54&#10;  Q 7.96 86.89 8.04 117.25&#10;  Q 8.06 128.72 10.68 138.91&#10;  C 17.47 165.35 43.24 173.57 67.54 173.18&#10;  C 97.72 172.70 120.90 151.24 130.26 123.83&#10;  Q 133.89 113.17 133.91 113.13&#10;  Q 143.74 89.09 163.33 71.67&#10;  Q 163.51 71.51 163.50 71.27&#10;  Q 163.50 71.12 163.51 70.95&#10;  A 0.36 0.36 0.0 0 0 162.96 70.62&#10;  Z&#10;  M 190.94 101.55&#10;  Q 188.92 106.44 186.63 110.60&#10;  Q 186.27 111.26 187.02 111.26&#10;  L 191.13 111.24&#10;  A 0.65 0.64 -0.5 0 0 191.77 110.60&#10;  Q 191.78 106.33 191.54 102.07&#10;  Q 191.50 101.47 191.04 101.48&#10;  A 0.12 0.11 -77.4 0 0 190.94 101.55&#10;  Z"/>
<path fill="#8f8f8f" d="&#10;  M 98.6848 126.0506&#10;  A 4.51 4.51 0.0 0 1 94.1669 130.5528&#10;  L 22.1870 130.4271&#10;  A 4.51 4.51 0.0 0 1 17.6849 125.9093&#10;  L 17.7952 62.6894&#10;  A 4.51 4.51 0.0 0 1 22.3131 58.1872&#10;  L 94.2930 58.3129&#10;  A 4.51 4.51 0.0 0 1 98.7951 62.8307&#10;  L 98.6848 126.0506&#10;  Z&#10;  M 58.51 98.34&#10;  L 38.24 123.15&#10;  A 0.36 0.36 0.0 0 0 38.68 123.70&#10;  L 72.96 106.23&#10;  A 1.35 1.34 64.9 0 0 73.58 104.50&#10;  L 64.16 82.53&#10;  Q 63.92 81.97 64.32 81.51&#10;  L 78.37 65.18&#10;  A 0.21 0.21 0.0 0 0 78.09 64.86&#10;  L 42.08 88.29&#10;  A 0.43 0.43 0.0 0 0 42.12 89.03&#10;  L 58.34 97.51&#10;  Q 58.93 97.83 58.51 98.34&#10;  Z"/>
<path fill="#cecece" d="&#10;  M 58.34 97.51&#10;  L 42.12 89.03&#10;  A 0.43 0.43 0.0 0 1 42.08 88.29&#10;  L 78.09 64.86&#10;  A 0.21 0.21 0.0 0 1 78.37 65.18&#10;  L 64.32 81.51&#10;  Q 63.92 81.97 64.16 82.53&#10;  L 73.58 104.50&#10;  A 1.35 1.34 64.9 0 1 72.96 106.23&#10;  L 38.68 123.70&#10;  A 0.36 0.36 0.0 0 1 38.24 123.15&#10;  L 58.51 98.34&#10;  Q 58.93 97.83 58.34 97.51&#10;  Z"/>
<rect fill="#757575" x="31.84" y="139.59" width="80.84" height="6.22" rx="3.07"/>
</svg>