<svg xmlns="http://www.w3.org/2000/svg" version="1.1" viewBox="0.00 0.00 36.00 38.00" width="100" height="105.55555555555556">
<path fill="#686868" d="&#10;  M 19.73 33.77&#10;  Q 19.68 34.17 19.78 34.49&#10;  Q 19.88 34.85 20.24 34.98&#10;  Q 20.61 35.12 20.89 34.95&#10;  Q 21.41 34.65 21.05 34.17&#10;  Q 20.61 33.58 19.73 33.77&#10;  Q 19.72 33.15 20.07 32.64&#10;  Q 20.33 32.25 20.79 32.25&#10;  L 27.50 32.25&#10;  A 3.00 3.00 0.0 0 0 30.50 29.25&#10;  L 30.50 8.75&#10;  A 3.00 3.00 0.0 0 0 27.50 5.75&#10;  L 2.11 5.75&#10;  A 1.01 1.01 0.0 0 1 1.33 4.09&#10;  L 3.18 1.86&#10;  Q 3.48 1.50 3.95 1.50&#10;  L 31.74 1.50&#10;  A 0.81 0.80 78.3 0 1 32.48 1.99&#10;  Q 32.96 3.08 34.09 3.53&#10;  Q 34.56 3.71 34.56 4.21&#10;  L 34.47 32.24&#10;  A 4.25 4.25 0.0 0 1 30.25 36.48&#10;  L 20.65 36.55&#10;  Q 20.20 36.55 19.95 36.18&#10;  Q 18.99 34.75 17.53 33.70&#10;  Q 16.80 33.17 17.06 32.28&#10;  A 0.65 0.64 52.5 0 1 18.32 32.45&#10;  Q 18.36 33.90 19.73 33.77&#10;  Z"/>
<path fill="#686868" d="&#10;  M 12.34 29.41&#10;  L 12.52 35.86&#10;  A 0.63 0.62 -0.9 0 1 11.89 36.50&#10;  L 9.25 36.50&#10;  Q 8.75 36.50 8.75 36.00&#10;  L 8.75 26.00&#10;  A 1.25 1.25 0.0 0 1 10.00 24.75&#10;  L 22.60 24.75&#10;  A 0.66 0.65 -90.0 0 0 23.25 24.09&#10;  L 23.25 14.25&#10;  A 1.00 1.00 0.0 0 0 22.25 13.25&#10;  L 4.74 13.25&#10;  Q 4.27 13.25 4.25 12.78&#10;  Q 4.21 12.00 4.94 12.00&#10;  A 0.59 0.59 0.0 0 0 5.41 11.05&#10;  Q 5.07 10.61 4.63 10.69&#10;  Q 4.36 10.74 4.12 11.11&#10;  Q 3.36 12.26 2.35 13.20&#10;  Q 1.95 13.57 1.56 13.18&#10;  L 1.34 12.96&#10;  A 0.51 0.51 0.0 0 1 1.50 12.12&#10;  Q 3.15 11.41 4.01 9.86&#10;  Q 4.24 9.44 4.72 9.45&#10;  L 25.75 9.53&#10;  A 0.98 0.97 -0.0 0 1 26.73 10.50&#10;  L 26.79 27.48&#10;  Q 26.79 28.50 25.77 28.50&#10;  L 13.22 28.50&#10;  A 0.89 0.89 0.0 0 0 12.34 29.41&#10;  Z"/>
<path fill="#686868" d="&#10;  M 5.23 21.35&#10;  L 5.26 33.04&#10;  A 0.54 0.54 0.0 0 1 4.20 33.21&#10;  L 3.79 31.94&#10;  A 0.37 0.37 0.0 0 0 3.07 32.01&#10;  Q 3.04 32.28 2.90 32.47&#10;  Q 2.50 33.02 3.00 33.48&#10;  L 5.26 35.55&#10;  Q 5.69 35.94 5.28 36.34&#10;  L 4.97 36.65&#10;  Q 4.49 37.13 4.26 36.49&#10;  Q 3.58 34.64 1.86 33.80&#10;  Q 1.45 33.60 1.45 33.13&#10;  L 1.47 17.64&#10;  A 0.64 0.64 0.0 0 1 2.11 17.00&#10;  L 14.04 17.00&#10;  Q 14.58 17.00 15.01 16.68&#10;  C 17.98 14.49 21.27 18.29 18.81 21.07&#10;  Q 17.21 22.89 14.91 21.02&#10;  A 1.21 1.21 0.0 0 0 14.16 20.76&#10;  L 5.83 20.75&#10;  Q 5.23 20.75 5.23 21.35&#10;  Z"/>
</svg>