<svg xmlns="http://www.w3.org/2000/svg" version="1.1" viewBox="0.00 0.00 167.00 87.00" width="167.00" height="87.00">
<g stroke-width="2.00" fill="none" stroke-linecap="butt">
<path stroke="#c5d8f1" vector-effect="non-scaling-stroke" d="&#10;  M 167.00 9.01&#10;  Q 157.50 9.57 148.03 9.37&#10;  C 127.58 8.94 107.14 8.95 86.69 8.91&#10;  Q 61.01 8.86 33.86 9.13&#10;  A 2.12 2.12 0.0 0 0 31.76 11.25&#10;  L 31.73 37.42&#10;  A 0.11 0.11 0.0 0 1 31.59 37.53&#10;  Q 31.45 37.49 31.32 37.44&#10;  Q 31.07 37.34 31.05 37.61&#10;  L 30.69 41.06&#10;  Q 30.64 41.58 30.91 42.04&#10;  L 31.44 42.95&#10;  Q 31.78 43.54 31.43 44.12&#10;  L 30.20 46.17&#10;  Q 29.98 46.53 30.37 46.70&#10;  Q 30.51 46.75 30.67 46.81&#10;  A 0.19 0.19 0.0 0 1 30.75 47.12&#10;  L 29.48 48.45&#10;  Q 29.19 48.76 29.58 48.94&#10;  Q 29.79 49.04 30.03 48.99&#10;  Q 30.21 48.96 30.24 48.77&#10;  L 30.29 48.39&#10;  A 0.32 0.32 0.0 0 1 30.92 48.43&#10;  L 31.03 71.11&#10;  Q 31.03 71.58 31.17 72.03&#10;  L 32.09 75.01"/>
<path stroke="#e5ce79" vector-effect="non-scaling-stroke" d="&#10;  M 32.09 75.01&#10;  L 26.20 81.23&#10;  Q 24.16 83.38 26.70 81.86&#10;  L 34.29 77.33"/>
<path stroke="#c5d8f1" vector-effect="non-scaling-stroke" d="&#10;  M 34.29 77.33&#10;  Q 35.18 78.16 33.84 79.52&#10;  Q 33.60 79.75 33.93 79.75&#10;  Q 34.09 79.75 34.24 79.75&#10;  Q 34.72 79.76 34.73 80.25&#10;  L 34.83 85.21&#10;  Q 34.83 85.38 34.98 85.47&#10;  L 35.27 85.65&#10;  Q 35.70 85.90 35.31 86.21&#10;  Q 34.69 86.70 34.94 87.00"/>
<path stroke="#656e79" vector-effect="non-scaling-stroke" d="&#10;  M 10.36 54.23&#10;  C 16.62 54.43 23.46 55.94 27.88 49.92&#10;  C 32.70 43.36 29.13 31.24 19.99 30.53&#10;  Q 16.50 30.25 4.63 30.60&#10;  Q 4.00 30.62 4.00 31.24&#10;  L 4.00 62.82&#10;  A 0.56 0.56 0.0 0 0 4.56 63.38&#10;  L 8.61 63.42&#10;  A 0.82 0.81 -88.2 0 0 9.43 62.64&#10;  L 9.76 54.78&#10;  Q 9.79 54.21 10.36 54.23"/>
<path stroke="#bcd2ef" vector-effect="non-scaling-stroke" d="&#10;  M 167.00 16.67&#10;  L 79.85 16.60"/>
<path stroke="#e0cb78" vector-effect="non-scaling-stroke" d="&#10;  M 79.85 16.60&#10;  L 84.39 11.67&#10;  A 0.10 0.10 0.0 0 0 84.27 11.51&#10;  L 33.94 41.72&#10;  A 0.35 0.34 41.4 0 0 33.98 42.33&#10;  L 54.07 51.21&#10;  A 0.43 0.42 34.0 0 1 54.21 51.89&#10;  L 32.09 75.01"/>
<path stroke="#dbc777" vector-effect="non-scaling-stroke" d="&#10;  M 79.85 16.60&#10;  L 55.31 42.18&#10;  A 0.40 0.40 0.0 0 0 55.44 42.82&#10;  L 75.54 51.74&#10;  A 0.43 0.43 0.0 0 1 75.59 52.50&#10;  L 51.42 67.04"/>
<path stroke="#e0cb78" vector-effect="non-scaling-stroke" d="&#10;  M 51.42 67.04&#10;  L 34.29 77.33"/>
<path stroke="#adc7ec" vector-effect="non-scaling-stroke" d="&#10;  M 167.00 29.49&#10;  Q 158.46 29.36 149.94 29.75&#10;  Q 149.35 29.78 149.47 30.46"/>
<path stroke="#5c6777" vector-effect="non-scaling-stroke" d="&#10;  M 149.47 30.46&#10;  L 144.51 30.40"/>
<path stroke="#adc7ec" vector-effect="non-scaling-stroke" d="&#10;  M 144.51 30.40&#10;  Q 143.67 30.03 143.02 29.34&#10;  A 1.05 1.04 68.2 0 0 142.26 29.01&#10;  Q 136.38 28.97 130.50 29.05&#10;  Q 129.14 29.06 128.96 30.23&#10;  Q 128.90 30.66 128.56 30.39&#10;  Q 128.03 29.95 127.64 30.24"/>
<path stroke="#5c6777" vector-effect="non-scaling-stroke" d="&#10;  M 127.64 30.24&#10;  L 122.63 30.31&#10;  A 0.88 0.88 0.0 0 0 121.82 30.88&#10;  L 109.62 62.68&#10;  Q 109.33 63.43 110.13 63.43&#10;  L 114.75 63.40"/>
<path stroke="#adc7ec" vector-effect="non-scaling-stroke" d="&#10;  M 114.75 63.40&#10;  Q 114.95 63.43 115.11 63.56&#10;  Q 115.49 63.89 115.13 64.24&#10;  L 114.83 64.55&#10;  A 0.31 0.31 0.0 0 0 114.96 65.07&#10;  Q 116.28 65.46 116.16 66.69&#10;  A 0.80 0.79 5.5 0 0 116.88 67.55&#10;  Q 121.74 68.00 124.25 68.01&#10;  Q 135.23 68.08 167.00 67.94"/>
<path stroke="#bcd2ef" vector-effect="non-scaling-stroke" d="&#10;  M 167.00 82.01&#10;  L 56.11 82.02&#10;  Q 53.25 82.02 53.25 79.16&#10;  C 53.25 75.38 54.29 70.32 51.42 67.04"/>
<path stroke="#5c6777" vector-effect="non-scaling-stroke" d="&#10;  M 88.61 54.23&#10;  C 93.55 54.36 100.70 55.57 104.57 51.79&#10;  C 111.07 45.45 108.53 31.56 98.68 30.57&#10;  Q 94.97 30.20 82.86 30.62&#10;  Q 82.25 30.64 82.25 31.25&#10;  L 82.25 62.80&#10;  A 0.55 0.55 0.0 0 0 82.80 63.35&#10;  L 86.87 63.40&#10;  A 0.81 0.80 1.1 0 0 87.68 62.63&#10;  L 88.03 54.77&#10;  Q 88.05 54.21 88.61 54.23"/>
<path stroke="#516075" vector-effect="non-scaling-stroke" d="&#10;  M 144.51 30.40&#10;  Q 143.96 30.84 143.98 32.50&#10;  Q 144.18 47.58 143.50 62.47&#10;  A 0.93 0.93 0.0 0 0 144.42 63.44&#10;  L 164.25 63.65&#10;  Q 164.97 63.66 165.03 62.94&#10;  L 165.32 59.32&#10;  Q 165.39 58.50 164.57 58.50&#10;  L 150.02 58.50&#10;  A 0.50 0.50 0.0 0 1 149.52 58.00&#10;  L 149.47 30.46"/>
<path stroke="#b6cdee" vector-effect="non-scaling-stroke" d="&#10;  M 167.00 58.03&#10;  Q 166.39 60.42 167.00 62.85"/>
<path stroke="#516075" vector-effect="non-scaling-stroke" d="&#10;  M 114.75 63.40&#10;  L 115.35 63.26&#10;  Q 115.75 63.17 115.88 62.78&#10;  L 117.75 57.14&#10;  A 0.93 0.92 -80.9 0 1 118.63 56.50&#10;  L 130.49 56.50&#10;  Q 132.04 56.50 132.53 57.98&#10;  L 134.15 62.87&#10;  A 0.79 0.79 0.0 0 0 134.90 63.41&#10;  L 140.06 63.41&#10;  A 0.44 0.44 0.0 0 0 140.47 62.81&#10;  L 127.64 30.24"/>
<path stroke="#516075" vector-effect="non-scaling-stroke" d="&#10;  M 120.96 51.48&#10;  L 128.52 51.48&#10;  A 1.18 1.18 0.0 0 0 129.62 49.87&#10;  L 125.19 38.54&#10;  A 0.48 0.48 0.0 0 0 124.29 38.54&#10;  L 120.04 50.16&#10;  A 0.98 0.98 0.0 0 0 120.96 51.48"/>
<path stroke="#656e79" vector-effect="non-scaling-stroke" d="&#10;  M 9.47 36.99&#10;  L 9.51 48.17&#10;  A 1.40 1.40 0.0 0 0 10.91 49.56&#10;  L 17.53 49.54&#10;  A 6.52 6.35 -0.2 0 0 24.03 43.16&#10;  L 24.03 41.88&#10;  A 6.52 6.35 -0.2 0 0 17.49 35.56&#10;  L 10.87 35.58&#10;  A 1.40 1.40 0.0 0 0 9.47 36.99"/>
<path stroke="#5c6777" vector-effect="non-scaling-stroke" d="&#10;  M 87.75 36.83&#10;  L 87.73 48.27&#10;  A 1.26 1.26 0.0 0 0 88.99 49.53&#10;  L 95.79 49.54&#10;  A 6.48 6.40 0.1 0 0 102.28 43.15&#10;  L 102.28 41.99&#10;  A 6.48 6.40 0.1 0 0 95.81 35.58&#10;  L 89.01 35.57&#10;  A 1.26 1.26 0.0 0 0 87.75 36.83"/>
</g>
<path fill="#cadbf2" d="&#10;  M 0.00 0.00&#10;  L 167.00 0.00&#10;  L 167.00 9.01&#10;  Q 157.50 9.57 148.03 9.37&#10;  C 127.58 8.94 107.14 8.95 86.69 8.91&#10;  Q 61.01 8.86 33.86 9.13&#10;  A 2.12 2.12 0.0 0 0 31.76 11.25&#10;  L 31.73 37.42&#10;  A 0.11 0.11 0.0 0 1 31.59 37.53&#10;  Q 31.45 37.49 31.32 37.44&#10;  Q 31.07 37.34 31.05 37.61&#10;  L 30.69 41.06&#10;  Q 30.64 41.58 30.91 42.04&#10;  L 31.44 42.95&#10;  Q 31.78 43.54 31.43 44.12&#10;  L 30.20 46.17&#10;  Q 29.98 46.53 30.37 46.70&#10;  Q 30.51 46.75 30.67 46.81&#10;  A 0.19 0.19 0.0 0 1 30.75 47.12&#10;  L 29.48 48.45&#10;  Q 29.19 48.76 29.58 48.94&#10;  Q 29.79 49.04 30.03 48.99&#10;  Q 30.21 48.96 30.24 48.77&#10;  L 30.29 48.39&#10;  A 0.32 0.32 0.0 0 1 30.92 48.43&#10;  L 31.03 71.11&#10;  Q 31.03 71.58 31.17 72.03&#10;  L 32.09 75.01&#10;  L 26.20 81.23&#10;  Q 24.16 83.38 26.70 81.86&#10;  L 34.29 77.33&#10;  Q 35.18 78.16 33.84 79.52&#10;  Q 33.60 79.75 33.93 79.75&#10;  Q 34.09 79.75 34.24 79.75&#10;  Q 34.72 79.76 34.73 80.25&#10;  L 34.83 85.21&#10;  Q 34.83 85.38 34.98 85.47&#10;  L 35.27 85.65&#10;  Q 35.70 85.90 35.31 86.21&#10;  Q 34.69 86.70 34.94 87.00&#10;  L 0.00 87.00&#10;  L 0.00 0.00&#10;  Z&#10;  M 10.36 54.23&#10;  C 16.62 54.43 23.46 55.94 27.88 49.92&#10;  C 32.70 43.36 29.13 31.24 19.99 30.53&#10;  Q 16.50 30.25 4.63 30.60&#10;  Q 4.00 30.62 4.00 31.24&#10;  L 4.00 62.82&#10;  A 0.56 0.56 0.0 0 0 4.56 63.38&#10;  L 8.61 63.42&#10;  A 0.82 0.81 -88.2 0 0 9.43 62.64&#10;  L 9.76 54.78&#10;  Q 9.79 54.21 10.36 54.23&#10;  Z"/>
<path fill="#c0d5f0" d="&#10;  M 167.00 9.01&#10;  L 167.00 16.67&#10;  L 79.85 16.60&#10;  L 84.39 11.67&#10;  A 0.10 0.10 0.0 0 0 84.27 11.51&#10;  L 33.94 41.72&#10;  A 0.35 0.34 41.4 0 0 33.98 42.33&#10;  L 54.07 51.21&#10;  A 0.43 0.42 34.0 0 1 54.21 51.89&#10;  L 32.09 75.01&#10;  L 31.17 72.03&#10;  Q 31.03 71.58 31.03 71.11&#10;  L 30.92 48.43&#10;  A 0.32 0.32 0.0 0 0 30.29 48.39&#10;  L 30.24 48.77&#10;  Q 30.21 48.96 30.03 48.99&#10;  Q 29.79 49.04 29.58 48.94&#10;  Q 29.19 48.76 29.48 48.45&#10;  L 30.75 47.12&#10;  A 0.19 0.19 0.0 0 0 30.67 46.81&#10;  Q 30.51 46.75 30.37 46.70&#10;  Q 29.98 46.53 30.20 46.17&#10;  L 31.43 44.12&#10;  Q 31.78 43.54 31.44 42.95&#10;  L 30.91 42.04&#10;  Q 30.64 41.58 30.69 41.06&#10;  L 31.05 37.61&#10;  Q 31.07 37.34 31.32 37.44&#10;  Q 31.45 37.49 31.59 37.53&#10;  A 0.11 0.11 0.0 0 0 31.73 37.42&#10;  L 31.76 11.25&#10;  A 2.12 2.12 0.0 0 1 33.86 9.13&#10;  Q 61.01 8.86 86.69 8.91&#10;  C 107.14 8.95 127.58 8.94 148.03 9.37&#10;  Q 157.50 9.57 167.00 9.01&#10;  Z"/>
<path fill="#ffc000" d="&#10;  M 79.85 16.60&#10;  L 55.31 42.18&#10;  A 0.40 0.40 0.0 0 0 55.44 42.82&#10;  L 75.54 51.74&#10;  A 0.43 0.43 0.0 0 1 75.59 52.50&#10;  L 51.42 67.04&#10;  L 34.29 77.33&#10;  L 26.70 81.86&#10;  Q 24.16 83.38 26.20 81.23&#10;  L 32.09 75.01&#10;  L 54.21 51.89&#10;  A 0.43 0.42 34.0 0 0 54.07 51.21&#10;  L 33.98 42.33&#10;  A 0.35 0.34 41.4 0 1 33.94 41.72&#10;  L 84.27 11.51&#10;  A 0.10 0.10 0.0 0 1 84.39 11.67&#10;  L 79.85 16.60&#10;  Z"/>
<path fill="#b7ceee" d="&#10;  M 79.85 16.60&#10;  L 167.00 16.67&#10;  L 167.00 29.49&#10;  Q 158.46 29.36 149.94 29.75&#10;  Q 149.35 29.78 149.47 30.46&#10;  L 144.51 30.40&#10;  Q 143.67 30.03 143.02 29.34&#10;  A 1.05 1.04 68.2 0 0 142.26 29.01&#10;  Q 136.38 28.97 130.50 29.05&#10;  Q 129.14 29.06 128.96 30.23&#10;  Q 128.90 30.66 128.56 30.39&#10;  Q 128.03 29.95 127.64 30.24&#10;  L 122.63 30.31&#10;  A 0.88 0.88 0.0 0 0 121.82 30.88&#10;  L 109.62 62.68&#10;  Q 109.33 63.43 110.13 63.43&#10;  L 114.75 63.40&#10;  Q 114.95 63.43 115.11 63.56&#10;  Q 115.49 63.89 115.13 64.24&#10;  L 114.83 64.55&#10;  A 0.31 0.31 0.0 0 0 114.96 65.07&#10;  Q 116.28 65.46 116.16 66.69&#10;  A 0.80 0.79 5.5 0 0 116.88 67.55&#10;  Q 121.74 68.00 124.25 68.01&#10;  Q 135.23 68.08 167.00 67.94&#10;  L 167.00 82.01&#10;  L 56.11 82.02&#10;  Q 53.25 82.02 53.25 79.16&#10;  C 53.25 75.38 54.29 70.32 51.42 67.04&#10;  L 75.59 52.50&#10;  A 0.43 0.43 0.0 0 0 75.54 51.74&#10;  L 55.44 42.82&#10;  A 0.40 0.40 0.0 0 1 55.31 42.18&#10;  L 79.85 16.60&#10;  Z&#10;  M 88.61 54.23&#10;  C 93.55 54.36 100.70 55.57 104.57 51.79&#10;  C 111.07 45.45 108.53 31.56 98.68 30.57&#10;  Q 94.97 30.20 82.86 30.62&#10;  Q 82.25 30.64 82.25 31.25&#10;  L 82.25 62.80&#10;  A 0.55 0.55 0.0 0 0 82.80 63.35&#10;  L 86.87 63.40&#10;  A 0.81 0.80 1.1 0 0 87.68 62.63&#10;  L 88.03 54.77&#10;  Q 88.05 54.21 88.61 54.23&#10;  Z"/>
<path fill="#a2bfe9" d="&#10;  M 144.51 30.40&#10;  Q 143.96 30.84 143.98 32.50&#10;  Q 144.18 47.58 143.50 62.47&#10;  A 0.93 0.93 0.0 0 0 144.42 63.44&#10;  L 164.25 63.65&#10;  Q 164.97 63.66 165.03 62.94&#10;  L 165.32 59.32&#10;  Q 165.39 58.50 164.57 58.50&#10;  L 150.02 58.50&#10;  A 0.50 0.50 0.0 0 1 149.52 58.00&#10;  L 149.47 30.46&#10;  Q 149.35 29.78 149.94 29.75&#10;  Q 158.46 29.36 167.00 29.49&#10;  L 167.00 58.03&#10;  Q 166.39 60.42 167.00 62.85&#10;  L 167.00 67.94&#10;  Q 135.23 68.08 124.25 68.01&#10;  Q 121.74 68.00 116.88 67.55&#10;  A 0.80 0.79 5.5 0 1 116.16 66.69&#10;  Q 116.28 65.46 114.96 65.07&#10;  A 0.31 0.31 0.0 0 1 114.83 64.55&#10;  L 115.13 64.24&#10;  Q 115.49 63.89 115.11 63.56&#10;  Q 114.95 63.43 114.75 63.40&#10;  L 115.35 63.26&#10;  Q 115.75 63.17 115.88 62.78&#10;  L 117.75 57.14&#10;  A 0.93 0.92 -80.9 0 1 118.63 56.50&#10;  L 130.49 56.50&#10;  Q 132.04 56.50 132.53 57.98&#10;  L 134.15 62.87&#10;  A 0.79 0.79 0.0 0 0 134.90 63.41&#10;  L 140.06 63.41&#10;  A 0.44 0.44 0.0 0 0 140.47 62.81&#10;  L 127.64 30.24&#10;  Q 128.03 29.95 128.56 30.39&#10;  Q 128.90 30.66 128.96 30.23&#10;  Q 129.14 29.06 130.50 29.05&#10;  Q 136.38 28.97 142.26 29.01&#10;  A 1.05 1.04 68.2 0 1 143.02 29.34&#10;  Q 143.67 30.03 144.51 30.40&#10;  Z"/>
<path fill="#000000" d="&#10;  M 127.64 30.24&#10;  L 140.47 62.81&#10;  A 0.44 0.44 0.0 0 1 140.06 63.41&#10;  L 134.90 63.41&#10;  A 0.79 0.79 0.0 0 1 134.15 62.87&#10;  L 132.53 57.98&#10;  Q 132.04 56.50 130.49 56.50&#10;  L 118.63 56.50&#10;  A 0.93 0.92 -80.9 0 0 117.75 57.14&#10;  L 115.88 62.78&#10;  Q 115.75 63.17 115.35 63.26&#10;  L 114.75 63.40&#10;  L 110.13 63.43&#10;  Q 109.33 63.43 109.62 62.68&#10;  L 121.82 30.88&#10;  A 0.88 0.88 0.0 0 1 122.63 30.31&#10;  L 127.64 30.24&#10;  Z&#10;  M 120.96 51.48&#10;  L 128.52 51.48&#10;  A 1.18 1.18 0.0 0 0 129.62 49.87&#10;  L 125.19 38.54&#10;  A 0.48 0.48 0.0 0 0 124.29 38.54&#10;  L 120.04 50.16&#10;  A 0.98 0.98 0.0 0 0 120.96 51.48&#10;  Z"/>
<path fill="#000000" d="&#10;  M 9.76 54.78&#10;  L 9.43 62.64&#10;  A 0.82 0.81 -88.2 0 1 8.61 63.42&#10;  L 4.56 63.38&#10;  A 0.56 0.56 0.0 0 1 4.00 62.82&#10;  L 4.00 31.24&#10;  Q 4.00 30.62 4.63 30.60&#10;  Q 16.50 30.25 19.99 30.53&#10;  C 29.13 31.24 32.70 43.36 27.88 49.92&#10;  C 23.46 55.94 16.62 54.43 10.36 54.23&#10;  Q 9.79 54.21 9.76 54.78&#10;  Z&#10;  M 9.47 36.99&#10;  L 9.51 48.17&#10;  A 1.40 1.40 0.0 0 0 10.91 49.56&#10;  L 17.53 49.54&#10;  A 6.52 6.35 -0.2 0 0 24.03 43.16&#10;  L 24.03 41.88&#10;  A 6.52 6.35 -0.2 0 0 17.49 35.56&#10;  L 10.87 35.58&#10;  A 1.40 1.40 0.0 0 0 9.47 36.99&#10;  Z"/>
<path fill="#000000" d="&#10;  M 88.03 54.77&#10;  L 87.68 62.63&#10;  A 0.81 0.80 1.1 0 1 86.87 63.40&#10;  L 82.80 63.35&#10;  A 0.55 0.55 0.0 0 1 82.25 62.80&#10;  L 82.25 31.25&#10;  Q 82.25 30.64 82.86 30.62&#10;  Q 94.97 30.20 98.68 30.57&#10;  C 108.53 31.56 111.07 45.45 104.57 51.79&#10;  C 100.70 55.57 93.55 54.36 88.61 54.23&#10;  Q 88.05 54.21 88.03 54.77&#10;  Z&#10;  M 87.75 36.83&#10;  L 87.73 48.27&#10;  A 1.26 1.26 0.0 0 0 88.99 49.53&#10;  L 95.79 49.54&#10;  A 6.48 6.40 0.1 0 0 102.28 43.15&#10;  L 102.28 41.99&#10;  A 6.48 6.40 0.1 0 0 95.81 35.58&#10;  L 89.01 35.57&#10;  A 1.26 1.26 0.0 0 0 87.75 36.83&#10;  Z"/>
<path fill="#000000" d="&#10;  M 144.51 30.40&#10;  L 149.47 30.46&#10;  L 149.52 58.00&#10;  A 0.50 0.50 0.0 0 0 150.02 58.50&#10;  L 164.57 58.50&#10;  Q 165.39 58.50 165.32 59.32&#10;  L 165.03 62.94&#10;  Q 164.97 63.66 164.25 63.65&#10;  L 144.42 63.44&#10;  A 0.93 0.93 0.0 0 1 143.50 62.47&#10;  Q 144.18 47.58 143.98 32.50&#10;  Q 143.96 30.84 144.51 30.40&#10;  Z"/>
<path fill="#cadbf2" d="&#10;  M 9.47 36.99&#10;  A 1.40 1.40 0.0 0 1 10.87 35.58&#10;  L 17.49 35.56&#10;  A 6.52 6.35 -0.2 0 1 24.03 41.88&#10;  L 24.03 43.16&#10;  A 6.52 6.35 -0.2 0 1 17.53 49.54&#10;  L 10.91 49.56&#10;  A 1.40 1.40 0.0 0 1 9.51 48.17&#10;  L 9.47 36.99&#10;  Z"/>
<path fill="#b7ceee" d="&#10;  M 87.75 36.83&#10;  A 1.26 1.26 0.0 0 1 89.01 35.57&#10;  L 95.81 35.58&#10;  A 6.48 6.40 0.1 0 1 102.28 41.99&#10;  L 102.28 43.15&#10;  A 6.48 6.40 0.1 0 1 95.79 49.54&#10;  L 88.99 49.53&#10;  A 1.26 1.26 0.0 0 1 87.73 48.27&#10;  L 87.75 36.83&#10;  Z"/>
<path fill="#a2bfe9" d="&#10;  M 120.96 51.48&#10;  A 0.98 0.98 0.0 0 1 120.04 50.16&#10;  L 124.29 38.54&#10;  A 0.48 0.48 0.0 0 1 125.19 38.54&#10;  L 129.62 49.87&#10;  A 1.18 1.18 0.0 0 1 128.52 51.48&#10;  L 120.96 51.48&#10;  Z"/>
<path fill="#cadbf2" d="&#10;  M 167.00 58.03&#10;  L 167.00 62.85&#10;  Q 166.39 60.42 167.00 58.03&#10;  Z"/>
<path fill="#c0d5f0" d="&#10;  M 51.42 67.04&#10;  C 54.29 70.32 53.25 75.38 53.25 79.16&#10;  Q 53.25 82.02 56.11 82.02&#10;  L 167.00 82.01&#10;  L 167.00 87.00&#10;  L 34.94 87.00&#10;  Q 34.69 86.70 35.31 86.21&#10;  Q 35.70 85.90 35.27 85.65&#10;  L 34.98 85.47&#10;  Q 34.83 85.38 34.83 85.21&#10;  L 34.73 80.25&#10;  Q 34.72 79.76 34.24 79.75&#10;  Q 34.09 79.75 33.93 79.75&#10;  Q 33.60 79.75 33.84 79.52&#10;  Q 35.18 78.16 34.29 77.33&#10;  L 51.42 67.04&#10;  Z"/>
</svg>