<svg width="500" height="500" xmlns="http://www.w3.org/2000/svg" xml:space="preserve" version="1.1">
 <g id="Layer_1">
  <title>Layer 1</title>
  <g stroke="null" id="svg_129">
   <path stroke="null" id="svg_130" fill="#9D0A12" d="m249.97849,0c-135.49925,0 -245.73228,110.23824 -245.73228,245.72882c0,135.49578 110.23303,245.73228 245.73228,245.73228c135.50272,0 245.73575,-110.2365 245.73575,-245.73228c0,-135.49058 -110.23303,-245.72882 -245.73575,-245.72882m0,483.56551c-131.14749,0 -237.82803,-106.69094 -237.82803,-237.83669c0,-131.13708 106.68054,-237.82456 237.82803,-237.82456c131.14576,0 237.84364,106.68748 237.84364,237.82456c0,131.14575 -106.69788,237.83669 -237.84364,237.83669"/>
   <polygon stroke="null" id="svg_131" fill="#9D0A12" points="437.9017333984375,246.59396362304688 437.3988952636719,253.18055725097656 448.110107421875,260.57855224609375 436.3950500488281,266.3831787109375 435.87493896484375,273.0911560058594 453.0860900878906,263.9663391113281 465.0126647949219,264.886962890625 465.4461364746094,259.1846008300781 453.5541687011719,258.2795715332031 "/>
   <polygon stroke="null" id="svg_132" fill="#9D0A12" points="440.1764221191406,275.83050537109375 435.4848327636719,274.7919921875 430.6319885253906,296.8420715332031 435.3253479003906,297.8822937011719 437.14752197265625,289.6434326171875 460.2014465332031,294.7129821777344 461.4255065917969,289.1146545410156 438.37158203125,284.04339599609375 "/>
   <polygon stroke="null" id="svg_133" fill="#9D0A12" points="427.3014831542969,306.4194030761719 454.3049011230469,315.2546691894531 456.0907287597656,309.8089294433594 429.0889587402344,300.9527893066406 "/>
   <path stroke="null" id="svg_134" fill="#9D0A12" d="m444.02019,320.14738c-1.63148,-0.73165 -3.16933,-1.00558 -4.58929,-0.82007c-1.42516,0.18898 -2.73242,0.75245 -3.92179,1.68695c-1.19803,0.92063 -2.6544,2.52263 -4.40377,4.80254c-1.74417,2.27817 -3.04103,3.61664 -3.89751,4.03968c-0.66923,0.31901 -1.31073,0.33809 -1.92795,0.06069c-0.66924,-0.30515 -1.07494,-0.81314 -1.22925,-1.55346c-0.23753,-1.14082 -0.01733,-2.46889 0.67444,-3.99287c0.65363,-1.47024 1.44596,-2.44461 2.35446,-2.92314c0.91716,-0.47331 2.09439,-0.52533 3.52648,-0.14563l2.1204,-5.34001c-2.41861,-0.98478 -4.69678,-0.97611 -6.86919,0.02081c-2.16547,1.00905 -3.97206,3.13985 -5.43883,6.3872c-0.89635,2.00077 -1.36274,3.83337 -1.39395,5.50992c-0.04161,1.68002 0.35369,3.14853 1.17203,4.42631c0.81487,1.25698 1.87421,2.19148 3.19187,2.78097c2.05279,0.91369 4.14198,0.91369 6.28665,-0.04335c1.52919,-0.67791 3.26295,-2.26257 5.22905,-4.75399c1.51705,-1.93315 2.5209,-3.16239 3.00809,-3.68079c0.72645,-0.74899 1.38008,-1.21191 1.97129,-1.38181c0.58775,-0.16297 1.18937,-0.11096 1.80659,0.16991c0.95184,0.42998 1.59507,1.23271 1.92969,2.41167c0.32421,1.17897 0.10749,2.60759 -0.64843,4.29455c-0.72125,1.5916 -1.68869,2.6648 -2.91273,3.24388c-1.21537,0.57908 -2.75323,0.64323 -4.60489,0.17338l-1.79098,5.31053c3.04623,0.96918 5.73357,0.90676 8.03775,-0.16297c2.29897,-1.08014 4.18878,-3.26469 5.67115,-6.53631c1.00905,-2.24523 1.53959,-4.25987 1.58987,-6.05433c0.04508,-1.79791 -0.39703,-3.40339 -1.31766,-4.80254c-0.92757,-1.42169 -2.13601,-2.45501 -3.62358,-3.12772"/>
   <path stroke="null" id="svg_135" fill="#9D0A12" d="m426.76745,350.89404c-1.17376,0.20979 -2.3926,0.63629 -3.67906,1.27952c1.05413,-2.28857 1.33673,-4.33095 0.85995,-6.14274c-0.48893,-1.80485 -1.62281,-3.29069 -3.42246,-4.44539c-1.40089,-0.91369 -2.88153,-1.38528 -4.43151,-1.39568c-1.54306,-0.01387 -2.8954,0.41263 -4.07436,1.29339c-1.17896,0.87381 -2.58852,2.59371 -4.2512,5.14062l-6.55885,10.14255l23.84799,15.43747l3.11905,-4.81467l-9.95357,-6.44095l0.63283,-0.98131c0.71605,-1.10788 1.32807,-1.85167 1.83779,-2.2487c0.50973,-0.40223 1.14775,-0.65363 1.93489,-0.80967c0.77153,-0.14217 2.48623,-0.23753 5.14063,-0.26007l7.4448,-0.12483l3.72934,-5.75611l-6.53805,-0.10576c-2.58678,-0.04507 -4.48006,0.02254 -5.63821,0.23233m-7.53323,-0.49759c-0.17511,0.70391 -1.00905,2.20363 -2.5105,4.51647l-2.30418,3.55943l-6.05605,-3.91139l2.43768,-3.76574c1.26565,-1.94009 2.04931,-3.10171 2.35619,-3.46407c0.63803,-0.68657 1.33673,-1.09401 2.10479,-1.2015c0.78193,-0.10923 1.56386,0.09189 2.36659,0.61549c0.70911,0.46465 1.20844,1.01599 1.47717,1.64188c0.2618,0.63803 0.30341,1.30206 0.1283,2.00943"/>
   <polygon stroke="null" id="svg_136" fill="#9D0A12" points="404.7468566894531,389.0074768066406 398.9630126953125,383.8598937988281 408.43804931640625,373.1990051269531 404.8578186035156,370.022705078125 395.38623046875,380.6871337890625 390.67730712890625,376.5018310546875 400.8597412109375,365.0415954589844 397.26910400390625,361.8497314453125 383.2741394042969,377.59234619140625 404.50933837890625,396.4696350097656 418.87359619140625,380.3212890625 415.2933654785156,377.1415710449219 "/>
   <polygon stroke="null" id="svg_137" fill="#9D0A12" points="376.0564270019531,384.30377197265625 384.283203125,404.8680114746094 365.23077392578125,393.4095153808594 360.48028564453125,397.41107177734375 386.54229736328125,412.61273193359375 391.2286682128906,408.670166015625 380.71160888671875,380.3819580078125 "/>
   <rect stroke="null" id="svg_138" fill="#9D0A12" height="3.311" width="16.392" transform="matrix(-0.971261 -1.43608 1.43608 -0.971261 219.236 940.698)" y="237.62568" x="197.73227"/>
   <polygon stroke="null" id="svg_139" fill="#9D0A12" points="342.1092529296875,408.8002014160156 350.9324035644531,425.5986633300781 331.81414794921875,414.20782470703125 326.86767578125,416.8050231933594 340.0807189941406,441.9620056152344 344.800048828125,439.48614501953125 336.1832275390625,423.0726013183594 354.9443359375,434.149658203125 360.0312194824219,431.47442626953125 346.8251037597656,406.3174133300781 "/>
   <path stroke="null" id="svg_140" fill="#9D0A12" d="m320.42673,419.54783l-5.43017,1.83606l5.01927,14.89307c0.72298,2.13947 1.15642,3.68426 1.30726,4.65691c0.14737,0.96917 -0.06068,1.90367 -0.63283,2.7931c-0.57215,0.89463 -1.62627,1.60893 -3.16586,2.1204c-1.51531,0.51839 -2.82778,0.58255 -3.92872,0.21672c-1.10268,-0.37276 -1.95569,-1.05933 -2.55905,-2.08919c-0.37276,-0.64323 -0.93623,-2.1204 -1.71469,-4.43671l-4.92737,-14.581l-5.43883,1.83607l4.85455,14.36081c1.01079,3.01676 1.96609,5.23771 2.83298,6.65767c0.59815,0.95184 1.43903,1.78058 2.52957,2.47235c1.09054,0.68484 2.40301,1.10094 3.93739,1.24311c1.52745,0.1491 3.58197,-0.20979 6.14275,-1.08014c2.13427,-0.71431 3.76921,-1.57426 4.90657,-2.56598c1.13562,-0.98825 1.94355,-2.07879 2.42727,-3.25775c0.47852,-1.18937 0.64323,-2.49489 0.49066,-3.93219c-0.16471,-1.43556 -0.79233,-3.76574 -1.88287,-7.00269l-4.76787,-14.14062z"/>
   <polygon stroke="null" id="svg_141" fill="#9D0A12" points="274.741943359375,431.3721008300781 275.8896484375,442.4959716796875 264.70513916015625,443.6472473144531 263.56085205078125,432.5233459472656 257.8602294921875,433.1058654785156 260.7660217285156,461.375 266.46661376953125,460.7924499511719 265.1940612792969,448.42205810546875 276.38031005859375,447.2742614746094 277.6494445800781,459.63427734375 283.36395263671875,459.0517272949219 280.4581604003906,430.7826843261719 "/>
   <path stroke="null" id="svg_142" fill="#9D0A12" d="m234.75947,439.0822c1.39741,-1.43556 3.14159,-2.10306 5.24118,-1.99037c1.52398,0.08495 2.79137,0.57561 3.81256,1.48237c1.01945,0.91369 1.65401,2.11346 1.90888,3.60277l5.74744,-1.04893c-0.5288,-2.30591 -1.40262,-4.09689 -2.62493,-5.38682c-2.05971,-2.16028 -4.81987,-3.33577 -8.28568,-3.52475c-3.97727,-0.21672 -7.25062,0.92063 -9.83914,3.40685c-2.57291,2.47929 -3.98767,6.08207 -4.23906,10.79618c-0.24447,4.47659 0.77499,8.05336 3.0653,10.75804c2.28684,2.70641 5.31747,4.15411 9.07801,4.36216c3.04623,0.15951 5.60007,-0.45078 7.66153,-1.84473c2.06492,-1.40262 3.60451,-3.62358 4.62049,-6.68368l-5.45791,-2.05972c-0.58428,2.05278 -1.45983,3.53515 -2.60585,4.45232c-1.15642,0.90329 -2.48969,1.31767 -4.01021,1.22924c-2.05972,-0.10923 -3.69466,-0.95184 -4.90137,-2.54691c-1.21537,-1.5916 -1.7199,-4.18531 -1.52745,-7.77075c0.18378,-3.38951 0.96224,-5.79079 2.35619,-7.23328"/>
   <polygon stroke="null" id="svg_143" fill="#9D0A12" points="195.56588745117188,454.6999816894531 216.72654724121094,459.09857177734375 217.69744873046875,454.41217041015625 202.15768432617188,451.1821594238281 203.73194885253906,443.61773681640625 217.69744873046875,446.5183410644531 218.67530822753906,441.82501220703125 204.7080535888672,438.9313659667969 205.98757934570312,432.75396728515625 220.99853515625,435.87298583984375 221.97813415527344,431.16583251953125 201.356689453125,426.8782043457031 "/>
   <polygon stroke="null" id="svg_144" fill="#9D0A12" points="175.58245849609375,418.0030212402344 173.94752502441406,422.5316467285156 181.88299560546875,425.3923645019531 173.86776733398438,447.6001892089844 179.27191162109375,449.54376220703125 187.28021240234375,427.3428649902344 195.19313049316406,430.1966552734375 196.82460021972656,425.66632080078125 "/>
   <rect stroke="null" id="svg_145" fill="#9D0A12" height="16.392" width="3.308" transform="matrix(-1.56403 -0.748295 0.748295 -1.56403 118.724 881.554)" y="239.05747" x="88.3911"/>
   <path stroke="null" id="svg_146" fill="#9D0A12" d="m123.48444,421.10475l5.16663,3.22655l5.39895,-4.23213l9.63282,6.00751l-1.30726,6.79291l5.29493,3.30109l5.40243,-30.12423l-5.16143,-3.21614l-24.42707,18.24445zm21.17972,-0.03294l-6.58139,-4.1073l8.84395,-6.90387l-2.26257,11.01117z"/>
   <polygon stroke="null" id="svg_147" fill="#9D0A12" points="131.20318603515625,390.7274169921875 123.8641357421875,399.1829833984375 115.38253784179688,391.8110046386719 122.71812438964844,383.3658142089844 118.37503814697266,379.6104736328125 99.75260925292969,401.0762634277344 104.09049987792969,404.83160400390625 112.23054504394531,395.4415283203125 120.72254943847656,402.8065490722656 112.57904052734375,412.1966247558594 116.91519165039062,415.9519958496094 135.52894592285156,394.4966125488281 "/>
   <path stroke="null" id="svg_148" fill="#9D0A12" d="m95.8655,374.14388l-3.67906,3.06877l4.20786,5.05221l-2.77403,2.30938c-1.0732,-0.241 -2.17415,-0.66403 -3.31323,-1.29686c-1.13215,-0.62589 -2.08226,-1.40955 -2.85552,-2.33019c-1.55866,-1.86207 -2.15854,-3.91139 -1.82219,-6.14968c0.33635,-2.22789 1.80139,-4.41937 4.39857,-6.57619c2.40994,-2.00077 4.68811,-2.94221 6.85532,-2.82431c2.17241,0.12483 4.05702,1.15469 5.66596,3.07051c1.0524,1.27258 1.62801,2.59025 1.70603,3.96166c0.09016,1.36447 -0.27913,2.65093 -1.09747,3.8507l4.45925,3.69813c1.64708,-2.10306 2.40821,-4.39163 2.27123,-6.86399c-0.12483,-2.47236 -1.32286,-5.06261 -3.57676,-7.77075c-1.73377,-2.08919 -3.54556,-3.53169 -5.44057,-4.32749c-2.46889,-1.04893 -4.98459,-1.3246 -7.54363,-0.80967c-2.56597,0.52533 -4.98459,1.7303 -7.25409,3.61664c-2.10479,1.74071 -3.68946,3.78309 -4.75919,6.11847c-1.08187,2.34059 -1.37488,4.75399 -0.92583,7.25062c0.45251,2.49836 1.63147,4.88576 3.52822,7.17607c1.49797,1.79792 3.31323,3.28723 5.45963,4.47312c2.13081,1.19283 4.02755,1.87247 5.70063,2.05972l8.70352,-7.24715l-7.91465,-9.50973z"/>
   <polygon stroke="null" id="svg_149" fill="#9D0A12" points="90.87397766113281,345.09979248046875 74.50373077392578,354.69964599609375 84.98956298828125,335.0733947753906 82.17045593261719,330.2552490234375 57.654964447021484,344.62646484375 60.35270690917969,349.2209777832031 76.33805847167969,339.8516540527344 66.14868927001953,359.1069030761719 69.05622863769531,364.06719970703125 93.57172393798828,349.7064208984375 "/>
   <path stroke="null" id="svg_150" fill="#9D0A12" d="m73.86571,310.46949l-30.50047,0.03121l2.21056,5.65902l6.87266,-0.15604l4.1229,10.58466l-5.09728,4.65691l2.26257,5.81506l22.33268,-20.93006l-2.20362,-5.66075zm-13.49739,12.65478l-2.82084,-7.22289l11.22615,-0.26006l-8.40531,7.48295z"/>
   <polygon stroke="null" id="svg_151" fill="#9D0A12" points="67.7004165649414,290.68023681640625 56.77074432373047,293.0572509765625 54.397212982177734,282.0755615234375 65.31822204589844,279.6985778808594 64.09938049316406,274.09674072265625 36.334808349609375,280.12158203125 37.55191421508789,285.71820068359375 49.69176483154297,283.0845947265625 52.079166412353516,294.06280517578125 39.92890930175781,296.7033386230469 41.14948272705078,302.31903076171875 68.9123306274414,296.2872619628906 "/>
   <path stroke="null" id="svg_152" fill="#9D0A12" d="m38.5835,268.58509c1.47024,0.81314 3.01676,1.1755 4.6517,1.06974c1.79272,-0.11097 3.27336,-0.58255 4.44712,-1.40956c1.16336,-0.83221 2.06492,-1.93315 2.68734,-3.31497c0.61549,-1.38181 1.1755,-3.48834 1.65922,-6.31959c0.48545,-2.81391 1.00559,-4.60835 1.57079,-5.36428c0.43691,-0.60335 0.99519,-0.91023 1.66442,-0.96224c0.73859,-0.05375 1.33673,0.22365 1.81699,0.81314c0.73859,0.88422 1.15989,2.17067 1.26392,3.83336c0.10749,1.60894 -0.14043,2.83818 -0.73339,3.68773c-0.58948,0.83221 -1.60027,1.42516 -3.04103,1.76498l0.60335,5.72317c2.60413,-0.26353 4.6205,-1.335 6.07339,-3.23001c1.45117,-1.88981 2.06492,-4.62569 1.84127,-8.17819c-0.13177,-2.18108 -0.57388,-4.03275 -1.32807,-5.52725c-0.74899,-1.49624 -1.78579,-2.61279 -3.08785,-3.36351c-1.31766,-0.73512 -2.68734,-1.06973 -4.13157,-0.97264c-2.2435,0.1387 -4.0969,1.12521 -5.54633,2.96821c-1.03506,1.30727 -1.83433,3.51782 -2.39781,6.61607c-0.45251,2.42727 -0.76806,3.99287 -0.96051,4.67597c-0.29474,1.00559 -0.65363,1.71297 -1.10095,2.136s-1.01079,0.6467 -1.67482,0.69351c-1.04893,0.06761 -1.9869,-0.34502 -2.83124,-1.23618c-0.83741,-0.88422 -1.31767,-2.2487 -1.42169,-4.08996c-0.10923,-1.74764 0.24273,-3.15893 1.05413,-4.23213c0.8114,-1.07667 2.14294,-1.83953 3.99807,-2.29551l-0.88943,-5.53939c-3.15199,0.57041 -5.49605,1.87247 -7.03563,3.89925c-1.53265,2.01637 -2.19149,4.82681 -1.96956,8.40705c0.14563,2.46542 0.62069,4.49739 1.41129,6.10287c0.79753,1.61934 1.93489,2.82777 3.40685,3.64438"/>
   <rect stroke="null" id="svg_153" fill="#9D0A12" height="26.11229" width="3.95646" y="273.84015" x="180.02265"/>
   <rect stroke="null" id="svg_154" fill="#9D0A12" height="29.13946" width="3.96513" y="266.44389" x="188.51985"/>
   <rect stroke="null" id="svg_155" fill="#9D0A12" height="31.37428" width="3.96166" y="256.57701" x="205.50732"/>
   <rect stroke="null" id="svg_156" fill="#9D0A12" height="30.30628" width="3.96166" y="261.29286" x="197.02052"/>
   <rect stroke="null" id="svg_157" fill="#9D0A12" height="32.45442" width="3.95646" y="253.09907" x="214.01839"/>
   <rect stroke="null" id="svg_158" fill="#9D0A12" height="32.8792" width="3.95646" y="250.40132" x="222.49305"/>
   <rect stroke="null" id="svg_159" fill="#9D0A12" height="23.45616" width="3.96166" y="281.95592" x="171.51504"/>
   <rect stroke="null" id="svg_160" fill="#9D0A12" height="18.11615" width="3.95646" y="293.2965" x="163.03518"/>
   <rect stroke="null" id="svg_161" fill="#9D0A12" height="13.06742" width="3.96166" y="305.21096" x="154.52237"/>
   <rect stroke="null" id="svg_162" fill="#9D0A12" height="9.09535" width="3.9634" y="314.75016" x="146.03384"/>
   <rect stroke="null" id="svg_163" fill="#9D0A12" height="6.63687" width="3.95646" y="321.7962" x="137.54011"/>
   <rect stroke="null" id="svg_164" fill="#9D0A12" height="4.88576" width="3.95646" y="327.77597" x="129.04811"/>
   <rect stroke="null" id="svg_165" fill="#9D0A12" height="26.11229" width="3.95646" y="273.84015" x="315.98828"/>
   <rect stroke="null" id="svg_166" fill="#9D0A12" height="29.14986" width="3.96166" y="266.43348" x="307.47374"/>
   <rect stroke="null" id="svg_167" fill="#9D0A12" height="31.37428" width="3.95646" y="256.57701" x="290.50014"/>
   <rect stroke="null" id="svg_168" fill="#9D0A12" height="30.30628" width="3.96166" y="261.29286" x="298.98174"/>
   <rect stroke="null" id="svg_169" fill="#9D0A12" height="32.45442" width="3.95646" y="253.09907" x="281.98387"/>
   <rect stroke="null" id="svg_170" fill="#9D0A12" height="32.8792" width="3.9634" y="250.40132" x="273.47973"/>
   <rect stroke="null" id="svg_171" fill="#9D0A12" height="23.45616" width="3.96166" y="281.96285" x="324.47161"/>
   <rect stroke="null" id="svg_172" fill="#9D0A12" height="18.11615" width="3.95646" y="293.2965" x="332.96881"/>
   <rect stroke="null" id="svg_173" fill="#9D0A12" height="13.06742" width="3.95646" y="305.21096" x="341.47295"/>
   <rect stroke="null" id="svg_174" fill="#9D0A12" height="9.09535" width="3.95819" y="314.75016" x="349.98229"/>
   <rect stroke="null" id="svg_175" fill="#9D0A12" height="6.63687" width="3.95646" y="321.7962" x="358.45695"/>
   <rect stroke="null" id="svg_176" fill="#9D0A12" height="4.88576" width="3.95646" y="327.77597" x="366.95415"/>
   <path stroke="null" id="svg_177" fill="#9D0A12" d="m223.62347,378.94989c1.37661,-1.24311 2.30765,-2.20362 2.84165,-2.86419c0.78887,-1.02293 1.36794,-1.97477 1.73377,-2.90233c0.36236,-0.9241 0.54787,-1.88634 0.54787,-2.90233c0,-1.80139 -0.64323,-3.29763 -1.91408,-4.48699c-1.28299,-1.21191 -3.02716,-1.80485 -5.26373,-1.80485c-2.02677,0 -3.73453,0.50799 -5.08341,1.54825c-1.35754,1.04893 -2.17761,2.75323 -2.42381,5.13716l4.31535,0.41957c0.07975,-1.25005 0.39183,-2.15335 0.92757,-2.69601c0.5392,-0.55481 1.25872,-0.81314 2.15854,-0.81314c0.90677,0 1.63321,0.2514 2.14987,0.78193c0.5236,0.51839 0.7802,1.23964 0.7802,2.21749c0,0.87382 -0.29647,1.75457 -0.89636,2.65787c-0.43691,0.63977 -1.63841,1.87941 -3.5889,3.7016c-2.42728,2.23136 -4.05702,4.05009 -4.87709,5.41803c-0.82354,1.36448 -1.31246,2.80351 -1.47717,4.32055l15.19302,0l0,-4.02235l-8.60643,0c0.22192,-0.39009 0.51666,-0.78539 0.88595,-1.19803c0.36409,-0.41263 1.22924,-1.23617 2.59719,-2.51223"/>
   <path stroke="null" id="svg_178" fill="#9D0A12" d="m242.23895,363.9892c-2.19841,0 -3.89751,0.75592 -5.12502,2.30591c-1.47717,1.88287 -2.21575,4.94817 -2.21575,9.19417c0,4.33789 0.67443,7.35811 2.02157,9.05201c1.33673,1.69736 3.11731,2.52957 5.3192,2.52957c2.19322,0 3.90098,-0.77153 5.12155,-2.30591c1.47717,-1.87247 2.21229,-4.95685 2.21229,-9.23752c0,-4.26681 -0.72472,-7.34771 -2.19842,-9.20805c-1.22924,-1.56907 -2.94221,-2.33019 -5.13543,-2.33019m2.35619,17.18859c-0.22192,0.88075 -0.54787,1.45636 -0.95531,1.80138c-0.4161,0.34502 -0.88595,0.49413 -1.40262,0.49413c-0.52533,0 -0.98998,-0.14911 -1.40609,-0.48719c-0.4057,-0.32595 -0.73858,-0.99519 -1.00732,-1.99037c-0.26179,-0.99519 -0.3953,-2.81044 -0.3953,-5.46831c0,-2.64053 0.14217,-4.53034 0.44385,-5.65556c0.23059,-0.85995 0.54267,-1.45636 0.95877,-1.78058c0.40397,-0.34502 0.88076,-0.50453 1.40609,-0.50453c0.51667,0 0.98478,0.15951 1.39222,0.50453c0.4109,0.32595 0.74379,0.99172 1.01599,1.9817c0.27047,0.98825 0.4005,2.81391 0.4005,5.45444c0.00173,2.65613 -0.1491,4.53901 -0.45078,5.65035"/>
   <path stroke="null" id="svg_179" fill="#9D0A12" d="m258.67335,367.59544c-1.33327,1.03333 -2.55384,1.73377 -3.69987,2.10306l0,3.94085c2.15681,-0.71778 4.02581,-1.79445 5.60007,-3.28202l0,16.32517l4.34309,0l0,-22.69503l-3.51261,0c-0.49759,1.38701 -1.40435,2.57811 -2.73069,3.60797"/>
   <path stroke="null" id="svg_180" fill="#9D0A12" d="m282.13124,374.54091c2.17588,-1.18936 3.25081,-2.77403 3.25081,-4.75746c0,-1.39915 -0.51666,-2.66133 -1.58119,-3.76575c-1.29166,-1.35407 -2.99249,-2.03545 -5.11982,-2.03545c-1.23965,0 -2.36659,0.23753 -3.37738,0.70738c-0.98999,0.46812 -1.77365,1.11135 -2.33365,1.91408c-0.57041,0.82701 -0.97958,1.91929 -1.26219,3.27856l3.99461,0.68484c0.11789,-0.97265 0.4213,-1.73031 0.95357,-2.25563c0.5288,-0.50453 1.16163,-0.76113 1.91061,-0.76113c0.75246,0 1.34714,0.22365 1.79445,0.67097c0.45425,0.45772 0.67444,1.0524 0.67444,1.82566c0,0.89116 -0.30515,1.59507 -0.9189,2.14641c-0.61722,0.5444 -1.50838,0.80273 -2.68907,0.76459l-0.46985,3.53169c0.76286,-0.21325 1.42689,-0.32595 1.99037,-0.32595c0.83914,0 1.55345,0.31554 2.13947,0.96224c0.58429,0.63976 0.87555,1.49624 0.87555,2.59372c0,1.15815 -0.30167,2.06839 -0.91196,2.74629c-0.61029,0.67097 -1.36447,1.00905 -2.26603,1.00905c-0.82875,0 -1.53785,-0.2774 -2.13081,-0.83915c-0.57907,-0.56521 -0.94143,-1.38875 -1.08013,-2.46195l-4.18705,0.5288c0.20979,1.8794 0.98998,3.43286 2.33365,4.61182c1.35407,1.16163 3.04623,1.75805 5.10075,1.75805c2.14641,0 3.95646,-0.70391 5.40936,-2.09266c1.45463,-1.40262 2.17761,-3.09131 2.17761,-5.08341c0,-1.36101 -0.38663,-2.5157 -1.15295,-3.50221c-0.78713,-0.96224 -1.82219,-1.5968 -3.12425,-1.8534"/>
   <path stroke="null" id="svg_181" fill="#9D0A12" d="m286.26281,349.84858l-5.31227,0l0,-2.11l-5.3192,0l0,-2.1308l-11.26603,0l4.35349,-23.48043c0.08496,-0.16644 0.13697,-0.34155 0.13697,-0.53573c0,-0.21672 -0.05722,-0.42304 -0.16818,-0.59989l-5.26892,-23.57579c0,-0.01041 0.0052,-0.01041 0.0052,-0.02081c0,-0.07802 -0.03121,-0.1283 -0.04335,-0.20632l2.66827,-15.70275l2.91793,0l0,-33.09938l-3.96167,0l0,12.69639l-2.51223,-12.01329c0.0104,-0.06762 0.03814,-0.1179 0.03814,-0.17685c0,-0.06588 -0.05375,-0.10229 -0.06415,-0.15951l3.66692,-23.79771c0.02081,-0.09883 0.05201,-0.18378 0.05201,-0.2826s-0.04681,-0.18031 -0.06935,-0.27221c-0.0104,-0.03121 -0.0156,-0.06068 -0.02774,-0.09362c-0.02081,-0.06069 -0.0156,-0.14391 -0.05028,-0.20459l-4.47312,-23.88613c0,-0.01041 -0.01561,-0.01041 -0.01561,-0.02081l3.18147,-23.4943c0.06762,-0.15431 0.11096,-0.31901 0.11096,-0.49239c0,-0.19591 -0.04855,-0.39183 -0.14043,-0.55654l-4.1021,-23.56539c0.00521,-0.04508 0.03121,-0.08149 0.03121,-0.1283c0,-0.03641 -0.03121,-0.05548 -0.03121,-0.07629l2.92661,-24.01443l0.06588,-1.32807l-11.41167,0l-1.068,-23.64861l-2.26083,0l-1.07667,23.64861l-11.47235,0l3.0705,25.29916l-4.18358,24.16353c-0.01041,0.03988 0.0052,0.08322 0.0052,0.1231c-0.0052,0.08322 -0.03294,0.15431 -0.02254,0.24273l3.20574,23.87747l-4.50087,24.08205c-0.0104,0.0208 -0.0104,0.05027 -0.0156,0.07108l-0.01214,0.05028c-0.0052,0.02254 0.0052,0.04161 0.0052,0.07282c-0.0156,0.10923 -0.04161,0.21672 -0.0208,0.32941l3.67732,24.02658l-2.53303,12.15892l0,-12.63571l-3.95646,0l0,33.09938l2.85898,0l2.67694,15.80677c-0.0052,0.02427 -0.0104,0.06068 -0.0104,0.09189l-5.34868,23.95722c-0.01733,0.06415 0,0.14217 0,0.21325c0,0.08496 -0.02254,0.16645 -0.0104,0.24793l4.40897,23.80291l-11.28683,0l0,2.1308l-5.31053,0l0,2.11l-5.31401,0l0,2.37353l72.57557,0l0,-2.36659l0.00174,0zm-36.32419,-73.99726l10.30032,20.35791l-20.56423,0l10.26391,-20.35791zm0.0156,-48.32534l9.4265,20.18454l-18.80965,0l9.38315,-20.18454zm7.69273,-76.76956l-15.31958,0l7.65285,-19.7667l7.66673,19.7667zm-7.69793,28.50663l8.56655,19.97475l-17.12964,0l8.56309,-19.97475zm0.02081,144.83559l11.64919,21.50914l-23.30706,0l11.65787,-21.50914zm1.93489,-3.68079l3.41899,-6.79291l6.43921,-12.73973l4.37257,19.53264l-14.23077,0zm-0.06415,-48.45712l8.98439,-19.29511l4.03101,19.29511l-13.01541,0zm-0.09535,-48.49005l1.90367,-4.44365l6.29532,-14.57407l3.57503,19.01771l-11.77402,0zm-0.05201,-48.46404l7.24542,-18.6623l3.25775,18.6623l-10.50317,0zm-10.70256,-18.66056l4.83201,12.43113l2.41341,6.23117l-10.4789,0l3.23348,-18.6623zm-0.99518,48.1173l2.47755,5.77345l5.68503,13.23386l-11.72374,0l3.56116,-19.00731zm-0.85128,48.18143l8.97745,19.31592l-13.00327,0l4.02581,-19.31592zm-0.96051,48.2924l9.82007,19.48064l-14.16663,0l4.34656,-19.48064z"/>
   <path stroke="null" id="svg_182" fill="#9D0A12" d="m309.10869,403.98378c2.24176,0 4.19745,-0.35542 5.9763,-1.09747c5.39895,-2.2383 8.76767,-7.72741 11.86591,-13.35176c2.12213,0.18031 4.26854,0.33462 6.32825,0.33462c4.85629,0 8.41572,-0.85995 11.19495,-2.72201c4.83722,-3.23695 7.07031,-9.24793 9.00347,-15.35079c6.35253,-0.70738 12.68079,-1.72683 16.77768,-5.81506c4.09516,-4.10383 5.09728,-10.44943 5.81853,-16.81929c6.07686,-1.93662 12.0757,-4.16105 15.28491,-8.96705c3.20747,-4.7852 2.96995,-11.16374 2.43421,-17.51453c5.63822,-3.09825 11.12906,-6.46523 13.37256,-11.86591c2.20362,-5.31921 0.67964,-11.56771 -1.09574,-17.72085c4.88749,-4.1177 9.58947,-8.4764 10.72856,-14.18223c1.12001,-5.61741 -1.55345,-11.41167 -4.48179,-17.07069c4.00847,-5.02099 7.75515,-10.23964 7.75515,-16.13792c0,-5.84974 -3.69466,-11.04064 -7.66152,-16.02176c2.90059,-5.63821 5.48911,-11.41687 4.35176,-17.13311c-1.15123,-5.75264 -5.80813,-10.12694 -10.68522,-14.24811c1.77018,-6.14447 3.28723,-12.38604 1.08534,-17.69484c-2.23829,-5.40243 -7.74475,-8.76767 -13.37256,-11.86592c0.53573,-6.34906 0.80273,-12.75013 -2.3926,-17.51453c-3.23695,-4.83721 -9.24099,-7.07031 -15.33345,-9.00346c-0.71605,-6.34906 -1.72857,-12.67905 -5.81506,-16.76901c-4.11077,-4.09516 -10.46503,-5.10421 -16.83663,-5.81853c-1.93835,-6.08207 -4.16625,-12.08611 -8.96705,-15.29705c-2.81737,-1.87767 -6.41668,-2.75843 -11.32324,-2.75843c-2.01637,0 -4.1073,0.14911 -6.18262,0.32942c-3.09825,-5.61915 -6.46523,-11.11346 -11.86071,-13.35176c-1.78579,-0.73685 -3.73974,-1.10094 -5.97631,-1.10094c-3.76054,0 -7.77942,1.05413 -11.73935,2.19669c-4.12464,-4.8979 -8.4972,-9.59988 -14.21344,-10.74243c-0.87035,-0.16991 -1.77365,-0.2618 -2.70468,-0.2618c-4.75573,0 -9.61375,2.28857 -14.36254,4.74359c-5.00366,-3.99287 -10.2223,-7.73435 -16.10498,-7.73435c-5.85494,0 -11.03891,3.68426 -16.02176,7.65633c-4.70545,-2.42728 -9.53226,-4.6361 -14.32787,-4.6361c-0.97611,0 -1.92101,0.09363 -2.83471,0.27741c-5.75785,1.14255 -10.13214,5.80465 -14.25678,10.68695c-3.93912,-1.14255 -7.94066,-2.18628 -11.6804,-2.18628c-2.2435,0 -4.19399,0.36409 -5.97977,1.10094c-5.40243,2.2383 -8.76767,7.74301 -11.87285,13.37256c-2.12387,-0.18378 -4.26507,-0.34502 -6.32999,-0.34502c-4.87189,0 -8.42092,0.87035 -11.20189,2.72722c-4.83201,3.23001 -7.06684,9.23579 -8.99826,15.33345c-6.33866,0.70911 -12.66865,1.72337 -16.75514,5.80986c-4.10383,4.10557 -5.10422,10.45463 -5.822,16.82449c-6.08379,1.94009 -12.09651,4.16798 -15.30397,8.96879c-3.19881,4.79561 -2.97168,11.16374 -2.44115,17.51453c-5.62608,3.08785 -11.11346,6.44789 -13.33962,11.84511c-2.20709,5.3192 -0.69004,11.57811 1.09574,17.72605c-4.90657,4.12637 -9.61201,8.48853 -10.75457,14.19957c-1.11655,5.61567 1.55345,11.4134 4.48006,17.06895c-4.00154,5.01059 -7.74128,10.21883 -7.74128,16.10325c0,5.85667 3.69986,11.04064 7.67193,16.02869c-2.91273,5.64515 -5.51165,11.43247 -4.3691,17.15565c1.14429,5.75611 5.80639,10.12867 10.69215,14.26371c-1.77538,6.13234 -3.28375,12.36351 -1.08013,17.66364c2.23136,5.40069 7.72914,8.76767 13.36389,11.86591c-0.54787,6.35947 -0.81487,12.75014 2.38393,17.53361c3.23695,4.83201 9.24446,7.07031 15.34385,9.00346c0.71258,6.34559 1.72857,12.67559 5.80813,16.76208c4.1021,4.08996 10.45116,5.10595 16.82103,5.82026c1.94529,6.08553 4.16798,12.09651 8.97399,15.30571c2.81911,1.87941 6.41841,2.76016 11.32671,2.76016c2.01984,0 4.11597,-0.15604 6.18783,-0.32768c3.09651,5.62088 6.46175,11.10652 11.85377,13.33788c1.79099,0.74899 3.74667,1.10441 5.98497,1.10441c3.75014,0 7.77075,-1.04893 11.72375,-2.19495c4.13157,4.9031 8.49547,9.61722 14.21343,10.75457c0.86862,0.17684 1.78231,0.26006 2.70468,0.26006c4.76093,0 9.63109,-2.28857 14.37815,-4.74706c5.01233,4.00327 10.2223,7.73781 16.10671,7.73781c5.8428,0 11.01983,-3.68773 16.00615,-7.65632c4.70372,2.43421 9.52879,4.6465 14.33133,4.64303c0.97438,0 1.92275,-0.08843 2.82951,-0.27394c5.76305,-1.14429 10.14255,-5.81506 14.26719,-10.70082c3.94779,1.14082 7.94933,2.17935 11.69427,2.17935m-25.93719,-9.18724c-1.21017,0 -2.377,0.11443 -3.45367,0.32248c-5.04353,1.00212 -9.69697,4.68985 -14.19263,8.32036c-5.12502,-2.68215 -10.41649,-5.40416 -15.56231,-5.40416c-5.22905,0.0104 -10.50663,2.6544 -15.62993,5.32614c-4.47312,-3.60624 -9.08841,-7.25756 -14.08687,-8.24234c-1.08014,-0.20632 -2.25217,-0.32248 -3.46754,-0.32248c-4.12464,0 -8.52841,1.22577 -12.82469,2.48275c-3.67559,-4.41591 -7.51243,-8.88209 -12.25255,-10.85339c-2.42208,-1.00905 -5.25852,-1.47717 -8.93238,-1.47717c-2.44808,0 -5.00886,0.21672 -7.51589,0.43691c-2.75149,-5.0418 -5.62781,-10.15469 -9.89462,-13.0102c-4.28935,-2.87112 -10.12174,-3.60971 -15.83798,-4.22693c-1.72857,-5.49952 -3.5837,-11.09613 -7.24022,-14.75091c-3.64265,-3.62705 -9.24792,-5.46484 -14.73877,-7.17954c-0.62416,-5.73704 -1.34194,-11.58851 -4.22519,-15.89173c-2.84512,-4.2564 -7.95107,-7.13099 -12.98593,-9.88075c0.50453,-5.74571 0.92583,-11.61799 -1.06453,-16.4344c-1.95049,-4.72452 -6.44442,-8.55095 -10.86033,-12.24561c1.61934,-5.52725 3.1832,-11.20882 2.16201,-16.3217c-0.98998,-5.0418 -4.68637,-9.6883 -8.30649,-14.17877c2.68561,-5.12675 5.41109,-10.41648 5.40589,-15.56231c-0.0052,-5.22731 -2.66133,-10.51184 -5.33134,-15.64033c3.59583,-4.46619 7.25062,-9.08668 8.2354,-14.0782c1.01079,-5.09381 -0.534,-10.76497 -2.15161,-16.28183c4.42111,-3.68253 8.88383,-7.51069 10.85513,-12.25428c1.99037,-4.79733 1.54999,-10.69735 1.03679,-16.4656c5.04353,-2.73589 10.15989,-5.62261 13.01541,-9.87728c2.86592,-4.29281 3.5941,-10.11655 4.21999,-15.82758c5.49605,-1.73897 11.10305,-3.58023 14.74917,-7.24542c3.64091,-3.64265 5.47004,-9.24099 7.18127,-14.7405c5.73184,-0.61723 11.58851,-1.34887 15.89173,-4.2252c4.26334,-2.85205 7.13273,-7.96147 9.87729,-12.98766c2.47062,0.21672 4.98458,0.42824 7.40666,0.42824c3.70506,0 6.56578,-0.47332 9.02253,-1.48757c4.73145,-1.94876 8.55615,-6.44615 12.23867,-10.86727c4.30321,1.26565 8.72606,2.49143 12.8663,2.49143c1.22057,0 2.3874,-0.10403 3.46754,-0.31381c5.03139,-0.99865 9.67789,-4.69331 14.16663,-8.30995c5.12849,2.67521 10.41821,5.40243 15.56924,5.40243c5.23078,-0.0052 10.51184,-2.6596 15.64033,-5.33654c4.46965,3.60797 9.08495,7.25062 14.08687,8.24407c1.07667,0.20979 2.24869,0.31381 3.45887,0.31381c4.13157,0 8.52667,-1.21364 12.81602,-2.47582c3.68079,4.41591 7.50549,8.8821 12.25428,10.85166c2.42034,1.00905 5.26199,1.47891 8.92891,1.47891c2.46022,0 5.0262,-0.21673 7.52803,-0.43865c2.75843,5.0418 5.63995,10.15642 9.89809,13.00847c4.29455,2.86419 10.11481,3.60104 15.82584,4.2252c1.72857,5.49951 3.58023,11.09785 7.24195,14.76131c3.64785,3.62878 9.25833,5.45443 14.75264,7.1726c0.62243,5.73357 1.34714,11.57811 4.22867,15.87959c2.85205,4.24947 7.94413,7.12405 12.98073,9.86688c-0.50973,5.75264 -0.93103,11.63879 1.05933,16.4552c1.95049,4.72799 6.44789,8.55095 10.86726,12.24041c-1.62107,5.53072 -3.16239,11.20188 -2.16027,16.30436c0.99865,5.03487 4.68811,9.68483 8.30995,14.17703c-2.69081,5.12849 -5.41803,10.43035 -5.41283,15.58485c0.0052,5.22905 2.6544,10.51184 5.32961,15.63513c-3.59583,4.46273 -7.23849,9.07108 -8.22673,14.07301c-1.00212,5.09381 0.54093,10.76497 2.15507,16.28182c-4.42457,3.68426 -8.89077,7.52109 -10.86726,12.26469c-1.99557,4.7956 -1.54999,10.69735 -1.04893,16.45347c-5.0366,2.74975 -10.13561,5.63128 -12.98073,9.89115c-2.87632,4.29108 -3.60624,10.11481 -4.22519,15.83798c-5.50472,1.72337 -11.11346,3.5785 -14.77691,7.24369c-3.62705,3.63745 -5.45444,9.24099 -7.17434,14.7301c-5.72317,0.61549 -11.56944,1.34714 -15.87265,4.22693c-4.26333,2.85378 -7.13966,7.96493 -9.88941,12.9998c-2.46715,-0.21672 -4.99673,-0.42651 -7.424,-0.42651c-3.69466,0 -6.56579,0.46811 -9.0156,1.48237c-4.72105,1.95396 -8.55095,6.44095 -12.23521,10.85687c-4.30148,-1.25352 -8.71566,-2.48969 -12.86457,-2.48969m30.40337,4.43671c-1.29686,0.53573 -2.76189,0.79927 -4.46445,0.79927c-2.74976,0 -5.74571,-0.67443 -8.90984,-1.54479c3.12772,-3.69119 6.16008,-6.98189 9.58081,-8.39144c1.95743,-0.81314 4.34483,-1.18937 7.50722,-1.18937c1.71296,0 3.51781,0.11789 5.32614,0.267c-2.58159,4.54941 -5.26199,8.492 -9.03987,10.05933m28.69907,-15.37333c-2.09959,1.40609 -4.95511,2.05971 -8.99479,2.05971c-1.36621,0 -2.80003,-0.08149 -4.25293,-0.18898c2.27644,-4.08129 4.69505,-8.00134 7.77595,-10.06453c3.12425,-2.08919 7.69273,-2.83818 12.35484,-3.38259c-1.63668,4.94298 -3.50221,9.30687 -6.88307,11.57638m25.17953,-20.6804c-2.85551,2.85725 -7.49681,3.82296 -12.66691,4.47313c1.43383,-4.46619 3.0393,-8.79715 5.66943,-11.43941c2.6544,-2.66134 6.99749,-4.28761 11.47235,-5.73357c-0.64669,5.18917 -1.61587,9.84607 -4.47486,12.69985m20.61971,-25.18299c-2.23656,3.35311 -6.58485,5.21171 -11.52089,6.84665c0.55134,-4.6465 1.29686,-9.20458 3.38605,-12.30282c2.05972,-3.08785 5.96243,-5.49605 10.05413,-7.76729c0.36756,5.16316 0.30861,9.88768 -1.91929,13.22345m15.43228,-28.69214c-1.56906,3.78308 -5.52205,6.46696 -10.0784,9.05201c-0.37623,-4.70718 -0.53573,-9.35889 0.90503,-12.83683c1.43556,-3.44673 4.82508,-6.58659 8.41745,-9.62415c1.38875,5.0314 2.29377,9.70391 0.75592,13.40897m9.40397,-31.16104c-0.78713,3.98941 -4.11077,7.37893 -8.05336,10.78578c-1.26912,-4.51127 -2.30418,-9.00346 -1.57947,-12.71199c0.71605,-3.62011 3.33057,-7.22635 6.32306,-10.98169c2.32845,4.62569 4.09343,9.00346 3.30977,12.90791m-2.59199,-20.16199c-2.15681,-4.20613 -4.06569,-8.43479 -4.07089,-12.24735c-0.0052,-3.73974 1.90368,-7.85051 4.15238,-12.18839c3.09304,4.00501 5.71797,8.10017 5.71797,12.16412c0,4.11423 -2.67694,8.23193 -5.79945,12.27162m2.56251,-44.65842c0.78713,3.97206 -0.96224,8.46946 -3.19533,12.97899c-3.02543,-3.80216 -5.67983,-7.44134 -6.40627,-11.08919c-0.72992,-3.72067 0.31034,-8.21633 1.58466,-12.73107c3.83337,3.33577 7.21941,6.83452 8.01695,10.84126m-9.37969,-31.20091c1.53439,3.69986 0.63803,8.36717 -0.74725,13.38989c-3.69293,-3.12425 -6.98536,-6.16528 -8.41225,-9.59121c-1.44597,-3.51782 -1.29686,-8.14871 -0.92063,-12.84723c4.55808,2.58678 8.50934,5.27239 10.08013,9.04854m-15.39413,-28.69042c2.22269,3.31323 2.2539,8.04296 1.87767,13.22866c-4.08475,-2.26951 -7.99094,-4.67597 -10.04372,-7.75341c-2.09439,-3.11905 -2.84685,-7.68753 -3.39125,-12.36004c4.94471,1.63841 9.30341,3.50048 11.55731,6.88479m-16.1882,-12.51261c-4.46966,-1.42516 -8.81275,-3.03583 -11.45155,-5.67116c-2.6596,-2.6544 -4.28241,-6.99229 -5.73357,-11.46368c5.19264,0.64843 9.85474,1.61067 12.71546,4.47659c2.85379,2.85205 3.82123,7.49855 4.46966,12.65825m-29.66652,-33.2901c3.35311,2.2383 5.20651,6.59699 6.84492,11.52957c-4.64303,-0.54441 -9.18898,-1.29513 -12.29763,-3.37912c-3.08091,-2.05971 -5.49951,-5.97803 -7.77075,-10.06973c1.40262,-0.09363 2.78097,-0.16644 4.0969,-0.16644c4.08823,0.00173 6.98709,0.66577 9.12656,2.08572m-28.68868,-15.40974c3.77789,1.56213 6.46523,5.50472 9.04161,10.04719c-1.84646,0.15084 -3.68773,0.27914 -5.4319,0.27914c-3.13119,0 -5.48911,-0.37103 -7.41359,-1.16856c-3.43286,-1.43556 -6.58139,-4.81641 -9.60855,-8.40358c3.178,-0.87902 6.18955,-1.55346 8.95491,-1.55346c1.70257,0 3.1676,0.26527 4.45752,0.79927m-31.1801,-9.4265c3.99287,0.80273 7.38586,4.12117 10.79445,8.06203c-4.57715,1.28646 -9.21325,2.29031 -12.69465,1.58987c-3.62531,-0.70911 -7.22982,-3.33404 -10.99037,-6.32826c4.67598,-2.30938 9.1283,-4.05355 12.89057,-3.32363m-20.15506,2.60412c-4.20439,2.15508 -8.43999,4.06569 -12.25255,4.07609c-3.73454,0 -7.83663,-1.90541 -12.16065,-4.13851c4.00847,-3.09651 8.09323,-5.71623 12.16585,-5.71623c4.10383,0 8.2146,2.6596 12.24735,5.77865m-44.66189,-2.56251c3.84203,-0.75766 8.42438,0.98651 12.98419,3.21961c-3.79002,3.02543 -7.4188,5.67463 -11.07185,6.39067c-3.49355,0.70044 -8.14872,-0.31381 -12.75014,-1.60027c3.33057,-3.82296 6.82931,-7.21248 10.83779,-8.01001m-31.17663,9.38489c1.29685,-0.53573 2.76363,-0.79927 4.46965,-0.79927c2.74455,0 5.74224,0.67097 8.8925,1.54479c-3.11731,3.69466 -6.15835,6.98709 -9.58774,8.40877c-1.95569,0.80274 -4.34309,1.18417 -7.50895,1.18417c-1.69909,0 -3.50395,-0.1231 -5.31053,-0.267c2.58331,-4.56155 5.26892,-8.50761 9.04507,-10.07147m-28.71121,15.38373c2.09092,-1.40089 4.95164,-2.05451 8.99826,-2.05451c1.36274,0 2.79483,0.07282 4.2512,0.17684c-2.27124,4.08476 -4.68465,7.99441 -7.76209,10.05413c-3.13119,2.09439 -7.7014,2.83991 -12.37217,3.38432c1.64015,-4.93777 3.49875,-9.30167 6.8848,-11.56077m-25.15352,20.65959c2.85031,-2.85552 7.48468,-3.81776 12.64957,-4.47139c-1.43209,4.47139 -3.04103,8.81449 -5.67463,11.44981c-2.6544,2.6596 -6.98362,4.28587 -11.45154,5.72664c0.64496,-5.18397 1.61414,-9.84434 4.47659,-12.70506m-20.63879,25.19166c2.23829,-3.35657 6.59699,-5.20824 11.52609,-6.84319c-0.54267,4.6413 -1.29513,9.18898 -3.37738,12.29763c-2.06492,3.07571 -5.98497,5.49431 -10.07493,7.76555c-0.36583,-5.16316 -0.31035,-9.88075 1.92622,-13.21999m-15.42187,28.67827c1.57079,-3.78135 5.50991,-6.46523 10.06453,-9.04507c0.37796,4.70371 0.54613,9.36409 -0.90503,12.85243c-1.42169,3.43633 -4.80948,6.57618 -8.39491,9.61201c-1.39221,-5.0418 -2.29897,-9.71777 -0.76459,-13.41937m-9.42304,31.1801c0.79753,-3.99807 4.12811,-7.39973 8.07243,-10.79965c1.27432,4.5026 2.30938,8.99479 1.57599,12.70333c-0.72125,3.62184 -3.33404,7.22808 -6.33173,10.99556c-2.33191,-4.62396 -4.09516,-8.99826 -3.3167,-12.89924m2.59892,20.1516c2.14467,4.20439 4.06743,8.43652 4.07263,12.24907c0,3.73627 -1.90195,7.82623 -4.14197,12.17106c-3.09131,-4.01021 -5.71624,-8.08977 -5.71624,-12.17453c0,-4.1073 2.66654,-8.21286 5.78559,-12.24561m-2.56077,44.64975c-0.79753,-3.97206 0.96744,-8.46946 3.20921,-12.98593c3.02196,3.79522 5.67983,7.4292 6.40107,11.08399c0.73339,3.72067 -0.31208,8.24233 -1.59507,12.75881c-3.82643,-3.33924 -7.21941,-6.83799 -8.01521,-10.85687m9.38489,31.19051c-1.53439,-3.70507 -0.63456,-8.34463 0.74899,-13.36563c3.69466,3.11559 6.98709,6.16355 8.39664,9.58948c1.45117,3.50741 1.30206,8.14004 0.9293,12.82642c-4.55981,-2.58679 -8.51281,-5.27413 -10.07493,-9.05027m15.37853,28.71121c-2.21749,-3.31843 -2.2487,-8.05856 -1.87073,-13.24426c4.08302,2.26257 7.99267,4.67944 10.05933,7.75861c2.08745,3.12945 2.84165,7.70661 3.38258,12.37391c-4.93604,-1.63841 -9.3034,-3.50741 -11.57117,-6.88826m16.19687,12.51261c4.46965,1.43557 8.80407,3.04797 11.44981,5.66943c2.6492,2.65787 4.27894,6.98883 5.72144,11.45501c-5.17703,-0.64323 -9.83567,-1.61241 -12.69986,-4.47313c-2.84858,-2.84685 -3.82816,-7.48988 -4.47139,-12.65131m29.66305,33.2901c-3.35831,-2.23829 -5.20997,-6.59699 -6.85359,-11.5365c4.6517,0.54441 9.19765,1.29339 12.30803,3.38259c3.08611,2.06145 5.50645,5.9867 7.78115,10.0784c-1.40262,0.09535 -2.7879,0.16991 -4.11077,0.16991c-4.08649,-0.00173 -6.99229,-0.6571 -9.12483,-2.09439m28.68174,15.40454c-3.76575,-1.55693 -6.45309,-5.49605 -9.02947,-10.03679c1.843,-0.14563 3.68426,-0.2774 5.41456,-0.2774c3.13292,0 5.49258,0.37623 7.4136,1.16856c3.43459,1.43209 6.58139,4.82508 9.60508,8.40185c-3.16413,0.87035 -6.17915,1.54825 -8.93411,1.54825c-1.71123,-0.00173 -3.1728,-0.25833 -4.46966,-0.80447m31.17663,9.43863c-3.99287,-0.80273 -7.38585,-4.12117 -10.79965,-8.06896c4.59449,-1.26912 9.24099,-2.27817 12.71893,-1.58813c3.62011,0.71431 7.22981,3.32884 10.98689,6.32826c-4.68118,2.32498 -9.14737,4.05355 -12.90618,3.32883m20.16893,-2.60412c4.19746,-2.14987 8.44,-4.06049 12.24561,-4.06395c3.73974,0 7.8297,1.90368 12.15372,4.14197c-4.00327,3.08437 -8.0811,5.70583 -12.14852,5.70583c-4.10557,0 -8.21286,-2.66653 -12.25081,-5.78385m44.64802,2.57291c-3.82123,0.75593 -8.41051,-0.98478 -12.98766,-3.21961c3.79695,-3.02716 7.43267,-5.68156 11.09092,-6.40628c3.48661,-0.69004 8.14871,0.32595 12.75013,1.60894c-3.33577,3.82816 -6.83625,7.21768 -10.85339,8.01695"/>
   <polygon stroke="null" id="svg_183" fill="#9D0A12" points="165.1417236328125,174.46224975585938 151.33743286132812,174.46224975585938 153.15097045898438,173.35955810546875 149.9539031982422,168.16867065429688 147.43994140625,169.7134552001953 150.3751983642578,174.46224975585938 138.0394287109375,174.46224975585938 138.0394287109375,177.4200439453125 165.1417236328125,177.4200439453125 "/>
   <polygon stroke="null" id="svg_184" fill="#9D0A12" points="167.01417541503906,195.25360107421875 156.2509307861328,195.25360107421875 161.51119995117188,181.1909942626953 158.38348388671875,181.1147003173828 153.03306579589844,195.25360107421875 148.6050262451172,195.25360107421875 148.55474853515625,195.0160675048828 149.82212829589844,194.44046020507812 144.41624450683594,181.20140075683594 141.09779357910156,181.20140075683594 146.9770050048828,195.25360107421875 135.96585083007812,195.25360107421875 135.96585083007812,198.1871337890625 167.01417541503906,198.1871337890625 "/>
   <polygon stroke="null" id="svg_185" fill="#9D0A12" points="134.9082489013672,233.6427001953125 137.44822692871094,235.10948181152344 141.8849334716797,227.5103759765625 139.33802795410156,226.04360961914062 "/>
   <polygon stroke="null" id="svg_186" fill="#9D0A12" points="153.3746337890625,231.0923309326172 155.89898681640625,229.5926055908203 151.8679656982422,222.8430633544922 149.34361267089844,224.35665893554688 "/>
   <polygon stroke="null" id="svg_187" fill="#9D0A12" points="159.35784912109375,226.67123413085938 165.66357421875,234.50265502929688 167.9608154296875,232.66139221191406 161.66030883789062,224.8178253173828 "/>
   <polygon stroke="null" id="svg_188" fill="#9D0A12" points="163.8448486328125,219.19003295898438 153.00186157226562,219.19003295898438 153.00186157226562,214.5279083251953 166.448974609375,214.5279083251953 166.448974609375,211.56317138671875 153.00186157226562,211.56317138671875 153.00186157226562,206.37744140625 150.05618286132812,206.37744140625 150.05618286132812,211.56317138671875 135.96759033203125,211.56317138671875 135.96759033203125,214.5279083251953 150.05618286132812,214.5279083251953 150.05618286132812,219.19003295898438 139.21493530273438,219.19003295898438 139.21493530273438,222.1426239013672 163.8448486328125,222.1426239013672 "/>
   <path stroke="null" id="svg_189" fill="#9D0A12" d="m156.46593,234.60496l-8.46079,0c-0.56347,-0.1231 -0.84781,-0.44731 -0.91543,-1.04547l0,-7.19687l-2.95087,0l0,8.93758c0,0.50799 0.15257,2.18628 2.05972,2.2487l12.29069,0l0,-0.03295l0.10923,0c1.71297,-0.16471 3.40686,-3.43633 3.72067,-4.09516l-3.25948,-1.44597c-0.50626,1.09228 -1.35061,2.39434 -2.59372,2.63013"/>
   <path stroke="null" id="svg_190" fill="#9D0A12" d="m207.11106,234.15244l0.02774,-0.08843l0,-17.24233l9.38489,0l0,-2.77923l-9.38489,0l0,-7.76035l-2.94047,0l0,7.76035l-16.37371,0l0,2.77923l15.30051,0l-0.13003,0.19419c-3.65305,5.45617 -8.91851,10.16335 -15.17047,13.49739l0,3.60797c1.93835,-0.87555 9.75245,-4.75919 16.14312,-13.09515l0.23233,-0.28434l-0.0052,11.24869c-0.22193,1.13562 -1.57947,1.71817 -2.57985,2.13947l-0.29127,0.1439l1.69736,3.60104c0.6519,-0.32075 3.93393,-1.99383 4.08997,-3.7224"/>
   <path stroke="null" id="svg_191" fill="#9D0A12" d="m310.91007,239.23585l2.78097,0l0,-31.02579l-28.36793,0l0,31.02579l2.7827,0l0,-1.96436l22.80426,0l0,1.96436zm-22.80426,-28.25697l22.80426,0l0,23.52032l-22.80426,0l0,-23.52032z"/>
   <polygon stroke="null" id="svg_192" fill="#9D0A12" points="303.1029052734375,226.12509155273438 305.28399658203125,228.73963928222656 300.96173095703125,228.73963928222656 300.96173095703125,223.33717346191406 307.58294677734375,223.33717346191406 307.58294677734375,220.5579376220703 300.96173095703125,220.5579376220703 300.96173095703125,216.606689453125 308.286865234375,216.606689453125 308.286865234375,213.83786010742188 290.8850402832031,213.83786010742188 290.8850402832031,216.606689453125 298.1824645996094,216.606689453125 298.1824645996094,220.5579376220703 291.5802917480469,220.5579376220703 291.5802917480469,223.33717346191406 298.1824645996094,223.33717346191406 298.1824645996094,228.73963928222656 290.2574157714844,228.73963928222656 290.2574157714844,231.51885986328125 308.8988952636719,231.51885986328125 308.8988952636719,228.7344207763672 305.2510681152344,224.3462371826172 "/>
   <polygon stroke="null" id="svg_193" fill="#9D0A12" points="363.228271484375,174.080810546875 358.71527099609375,169.15518188476562 356.6676940917969,171.03977966308594 361.1755065917969,175.97927856445312 "/>
   <rect stroke="null" id="svg_194" fill="#9D0A12" height="3.855" width="1.601" transform="matrix(1.39152 1.03419 -1.03419 1.39152 172.678 -172.018)" y="96.73959" x="199.80198"/>
   <polygon stroke="null" id="svg_195" fill="#9D0A12" points="343.39569091796875,174.42930603027344 339.8553466796875,168.75987243652344 337.4991455078125,170.24745178222656 341.0412292480469,175.90646362304688 "/>
   <path stroke="null" id="svg_196" fill="#9D0A12" d="m332.70355,187.7117l1.76151,2.59199c0.52187,-0.37623 1.94355,-1.45117 3.64959,-3.21441l0.21499,-0.22713l0,13.32228l2.7931,0l0,-12.44673l2.94394,3.57677l2.22963,-1.66789l-3.16586,-3.83856l2.86419,-2.74629l-1.93315,-1.9817l-2.60239,2.46889l-0.14911,0.05722l-0.14043,-0.18551l0.05895,-0.07629c1.02119,-1.47891 1.91581,-2.99942 2.62493,-4.54421l-0.00867,0l0.05375,-0.11789c0.48372,-1.08534 0.82181,-2.2695 0.93103,-2.69081l-11.34752,0l0,2.76883l6.89693,0l-0.10576,0.18378c-2.80177,5.1753 -6.85879,8.24234 -7.56963,8.76767"/>
   <path stroke="null" id="svg_197" fill="#9D0A12" d="m345.01851,186.77893l1.97129,2.45329c0.20979,-0.1335 0.77326,-0.52533 1.57079,-1.23445l0.21152,-0.17511l0,12.3583l2.78097,0l0,-1.66789l6.46696,0l0,1.66789l2.7827,0l0,-13.03967l0.20632,0.16124c0.70911,0.54961 1.45636,1.05933 2.15507,1.46677l1.87767,-2.5209c-1.86207,-1.10267 -6.21037,-4.1281 -8.94105,-10.05413c0,0 0.25313,-0.73165 0.33808,-0.96917l-3.29763,-0.08149c-2.75323,7.56617 -7.22981,10.99209 -8.12271,11.63532m13.00153,8.94798l-6.46696,0l0,-6.80157l6.46696,0l0,6.80157zm-7.45347,-9.78712c1.43383,-1.67656 2.72895,-3.62185 3.83163,-5.79253l0.09016,-0.19071l0.12483,0.19071c1.33501,2.21056 2.92487,4.14718 4.72973,5.78212l0.25313,0.22193l-9.20805,0l0.17858,-0.21152z"/>
   <path stroke="null" id="svg_198" fill="#9D0A12" d="m289.73035,185.25149l-5.55326,2.00077l0,3.05663l5.63821,-2.1256l0,6.19476l-0.0104,0.24793l-0.0104,0c-0.13871,0.96224 -1.02293,1.82739 -2.63533,2.57118l1.44943,3.17973c0.65363,-0.31901 3.90791,-1.99037 3.97207,-3.66172l0.0104,-0.1231l0.08495,-9.49932l3.71547,-1.30726l0,-3.06704l-3.79869,1.44076l0,-5.07994l3.79869,0l0,-2.7827l-3.79869,0l0,-7.72221l-2.7775,0l0,7.72221l-5.74397,0l0,2.7827l5.74397,0l-0.08495,6.17222z"/>
   <path stroke="null" id="svg_199" fill="#9D0A12" d="m300.69818,183.90261l0.05375,-0.1335l0.22019,0l0.02601,0.10403c0.12136,0.4109 1.25698,4.19745 4.1229,8.26834l0.06069,0.08843l-0.06069,0.07108c-1.26218,1.40955 -2.49836,2.54344 -3.39472,3.35658l-0.18031,0.10403l0,4.10556c2.02504,-1.30726 3.99633,-2.99075 5.70583,-4.87709l0.09015,-0.10403l0.09189,0.10403c2.13601,2.28337 4.53381,4.00327 7.14313,5.13542l0.07455,-3.59757c-1.91408,-0.95184 -3.68946,-2.29898 -5.26892,-4.01715l-0.07975,-0.08322l0.06761,-0.08669c1.79272,-2.55905 3.05664,-5.36775 3.76401,-8.33076l0.06589,-0.2722l0.0052,0c0.1335,-0.50973 0.41611,-1.68869 0.55307,-2.74283l-1.92102,0l0,0.01041l-11.13946,0l0,-7.86265l8.84222,0l0,1.29686l-0.01041,0.23753l-0.0156,0c-0.12657,0.96224 -1.00559,1.83259 -2.63013,2.59372l1.44769,3.14332c0.64843,-0.30341 3.80563,-1.93835 3.95126,-3.58543l0.04161,-0.09189l0,-6.37681l-14.41109,0l0,29.69947l2.78096,0l0,-16.15699l0.00347,0zm9.27219,-0.1335l-0.05375,0.16991c-0.53053,1.91928 -1.43209,3.79695 -2.644,5.60354l-0.10576,0.15431l-0.11443,-0.15431c-1.53439,-2.36659 -2.3926,-4.5182 -2.76189,-5.60354l-0.05028,-0.16991l5.73011,0z"/>
   <path stroke="null" id="svg_200" fill="#9D0A12" d="m358.73609,234.65697c-0.48372,0 -1.08707,-0.44385 -1.80139,-0.94664l-0.19418,-0.15084c-2.04411,-1.62107 -3.60277,-4.26507 -4.63957,-7.89211l-0.04855,-0.15951l8.62897,0l0,-2.78963l-9.2826,0l-0.0156,-0.10229c-0.29301,-1.69736 -0.43171,-3.11905 -0.48372,-4.03448l0,-0.1231l9.78192,0l0,-9.6935l-24.16007,-0.01041l0,25.90252l0.0208,0l0.01041,0.12309c0.09709,1.67135 3.28376,3.29243 3.93739,3.61144l1.40782,-3.0705c-1.02292,-0.46985 -2.59719,-1.44597 -2.59719,-2.86592l0,-6.94548l9.49065,0l0.01561,0.09189c1.27779,5.05221 3.44499,8.70179 6.44442,10.82045l0.06761,0.07802c1.50145,0.98651 2.79831,1.50665 3.89405,1.50665c3.13985,0 3.63398,-4.29628 3.70506,-5.11982l-3.34444,0c-0.01907,0.80273 -0.13697,1.77018 -0.83741,1.77018m-19.43902,-11.93873l0,-4.25987l8.45559,0l0.0052,0.11269c0.04335,0.88596 0.14737,2.29378 0.43171,3.99287l0.01734,0.15431l-8.90984,0zm0,-11.17414l18.61375,0l0,4.12637l-18.61375,0l0,-4.12637z"/>
   <path stroke="null" id="svg_201" fill="#9D0A12" d="m191.88163,184.26323l0,-0.12309l5.38509,0l0,7.91292l0.07455,0l-0.05895,0.16471c-0.23233,0.78193 -0.93623,1.36795 -3.64611,1.79965l0.36756,2.644c2.73415,-0.4005 5.53765,-1.27432 5.96937,-4.4974l0.08322,-0.09189l0.0104,-0.67964l-0.0104,0l0,-10.02812l-8.17645,0l0,-4.27721l11.16547,0l0.0052,0.11269c0.43171,4.83721 1.31247,9.05721 2.58505,12.66865c-1.59507,1.99557 -3.33404,3.71547 -5.09381,5.0418l0,3.95126c2.2591,-1.47197 4.43671,-3.40686 6.47043,-5.71104l0.11963,-0.1335l0.08496,0.15431c1.35927,2.48103 3.90271,6.09247 7.16567,6.09247c0.56867,0 1.14775,-0.06069 1.75457,-0.19419l0,-3.39645c-1.21017,0.36063 -3.90445,0.76113 -6.81718,-5.42323c1.93142,-2.67521 3.63051,-5.67983 5.0574,-8.95318l-3.41379,-0.07109c-0.85475,1.83259 -1.80485,3.53862 -2.87112,5.21171l-0.15431,0.24273l-0.07455,-0.2774c-0.7854,-2.70815 -1.35407,-5.80466 -1.68696,-9.18551l-0.0104,-0.1283l9.04681,0l0,-2.80871l-3.31323,-5.71103l-3.49008,0l3.37739,5.73184l-5.82027,0l-0.0052,-0.10749c-0.11096,-2.03891 -0.12657,-4.01367 -0.05201,-5.69197l-3.12078,0c-0.03988,0.87555 -0.07629,2.91967 0.04334,5.67983l0.01041,0.1179l-14.22037,0l0,2.62493l-0.01041,0.10403l0,7.52282c0,3.03583 -0.39009,10.36274 -3.90271,13.41764l3.26469,1.83259c0.51493,-0.63803 3.90792,-5.27933 3.90792,-15.53804"/>
   <polygon stroke="null" id="svg_202" fill="#9D0A12" points="99.61044311523438,135.63967895507812 99.61737060546875,135.63099670410156 99.61044311523438,135.63967895507812 99.60176849365234,135.63099670410156 99.60176849365234,135.65008544921875 94.81483459472656,139.22166442871094 95.4389877319336,143.5023193359375 89.26850891113281,155.13938903808594 70.58714294433594,145.25169372558594 79.14330291748047,129.09471130371094 77.31764221191406,128.11859130859375 77.30376434326172,128.11859130859375 72.48735809326172,131.709228515625 73.13578796386719,136.00550842285156 68.74761199951172,144.2738494873047 52.81081008911133,135.8459930419922 50.04372024536133,141.068115234375 86.50314331054688,160.37362670898438 77.39739227294922,177.5431365966797 79.22998046875,178.5261993408203 101.4673080444336,136.60711669921875 "/>
   <polygon stroke="null" id="svg_203" fill="#9D0A12" points="205.13803100585938,56.500064849853516 205.55413818359375,58.5441780090332 221.4666748046875,55.300296783447266 224.38287353515625,69.62122344970703 230.17886352539062,68.4231948852539 227.2609405517578,54.117862701416016 234.40406799316406,52.66670227050781 233.98794555664062,50.60004806518555 226.839599609375,52.05988311767578 221.0280303955078,23.612199783325195 215.22682189941406,24.811967849731445 221.04188537597656,53.249244689941406 "/>
   <path stroke="null" id="svg_204" fill="#9D0A12" d="m215.82324,37.57597c2.04585,-4.76439 -10.03505,-5.55673 -10.03505,-5.55673l-0.56001,1.17896c5.49431,3.10345 5.57407,4.49219 7.4292,5.32961c1.35754,0.60682 2.71855,0.1231 3.16586,-0.95184"/>
   <path stroke="null" id="svg_205" fill="#9D0A12" d="m217.88643,49.4471c2.52263,-4.4974 -9.4109,-6.55365 -9.4109,-6.55365l-0.67443,1.12001c5.14235,3.65825 5.0522,5.02619 6.81717,6.07686c1.29686,0.75072 2.69948,0.38489 3.26816,-0.64323"/>
   <path stroke="null" id="svg_206" fill="#9D0A12" d="m191.82094,37.55517l1.30727,6.40108l-8.25621,1.68175l0.42651,2.05972l6.97842,-1.43036c-0.11963,1.77365 -0.97091,13.12983 -4.06742,20.40126l1.50145,0.76632c0,0 3.67732,-5.52725 5.73357,-12.13291l3.96686,19.40261l5.79599,-1.17896l-4.80427,-23.54979c3.35831,2.68041 3.51261,3.83857 5.03139,4.73319c1.29166,0.73512 2.69948,0.39703 3.26642,-0.64323c2.16375,-3.86804 -6.33692,-5.90695 -8.77287,-6.40975l-0.57908,-2.84165l7.0235,-1.43556l-0.4005,-2.04238l-7.0339,1.43556l-1.55346,-7.61125c2.46542,-1.19803 4.73145,-2.5313 6.17915,-3.89925l-5.75958,-2.90233c0,0 -5.42497,5.90001 -14.37295,10.18763l0.34849,1.74937c0,0.00173 3.7172,-1.06801 8.04122,-2.74109"/>
   <path stroke="null" id="svg_207" fill="#9D0A12" d="m425.53301,129.28022c0.57041,-0.31034 1.45117,-0.94663 2.19149,-1.52398l17.28914,31.01713l-6.90387,2.00597l1.12522,2.00077l9.06241,1.87767l0.01041,0.02081l0.0208,-0.00347l0.05722,0.00347l1.73377,-0.94663l-0.39703,-6.01965l-3.93739,-1.81699l0,0.01041l-2.74802,-4.91351c1.95049,0.60335 5.88268,1.67829 11.16547,2.28338l-1.48237,-7.19167c0,0 -7.5679,2.06838 -11.42207,1.77885l-7.04777,-12.65651c0.25659,0.19418 0.5496,0.33808 0.86862,0.4109c5.50645,1.21884 3.78828,-12.83163 3.78828,-12.83163l-1.38528,-0.33461c-1.99557,6.64207 -3.72067,7.66153 -4.18705,9.89462c-0.07281,0.4109 -0.07281,0.80793 -0.0156,1.17896l-3.98247,-7.14139c0.72471,-0.75766 1.54305,-1.71817 1.54305,-1.71817l-0.76113,-1.33673l-0.30341,0.11789c-4.61183,1.55346 -6.7669,-0.1491 -9.48372,1.36275c-1.29513,0.73685 -2.31978,2.48622 -1.40435,4.11077c1.27432,2.30591 3.77962,1.94182 6.60566,0.36062"/>
   <path stroke="null" id="svg_208" fill="#9D0A12" d="m441.12306,143.28734c5.25679,1.06973 3.87844,-12.14852 3.87844,-12.14852l-1.30726,-0.31555c-2.00597,6.25717 -3.75535,7.34251 -4.20959,9.40743c-0.34675,1.51185 0.44038,2.80871 1.63841,3.05663"/>
   <path stroke="null" id="svg_209" fill="#9D0A12" d="m405.02425,155.84676c5.36602,7.26969 10.73203,4.3587 10.73203,4.3587l7.94933,-4.41591l8.69659,15.61086l1.79445,-1.02293l0.0104,0.02601l0,-0.02601l0,-0.01213l-0.4057,-5.94163l-3.89925,-1.79099l-4.3847,-7.85571l2.75843,-1.53439l8.25274,3.65305l1.81699,-1.01425l-12.27335,-22.01713l-1.81179,1.01425l9.05201,16.24889l-7.88345,-3.00983l-0.0208,-0.04508l-2.76363,1.54479l-10.55865,-18.9241l-1.81179,1.00212l10.55865,18.93969l-7.94413,4.41591c-0.82875,0.46292 -1.20844,-0.09362 -1.87247,-1.27605c-0.60335,-1.08013 -3.08091,-6.31959 -3.61664,-7.41879l-1.49798,0.84261c3.23348,7.65285 -0.87729,8.64803 -0.87729,8.64803"/>
   <path stroke="null" id="svg_210" fill="#9D0A12" d="m302.60358,46.68867l-7.72914,-1.90888l-0.50626,2.01637l0.89636,0.22192c-0.02254,5.88615 1.31766,10.83085 3.21614,14.92602c-7.99961,4.86149 -15.23983,6.13754 -15.23983,6.13754l-0.43691,1.83259c6.83279,0.79753 13.01714,-0.82354 18.27566,-3.31323c4.73492,7.13099 10.65401,10.53611 10.65401,10.53611c1.77538,-3.25081 4.42111,-3.44153 5.04701,-3.44153l0.35369,-1.44423c-5.03487,-2.23309 -8.72433,-5.13543 -11.48449,-8.16085c7.7014,-4.84241 12.45887,-10.85686 12.82295,-11.31977l0.03988,0.0104l0.48892,-2.03718l-10.65747,-2.63533l1.61414,-6.57099l13.43324,3.33404l0.50279,-2.02677l0.02601,-0.0052l-4.67771,-3.78135l-3.9894,1.65055l-4.78867,-1.18937l2.29724,-9.31207l-5.74397,-1.41995l-2.29725,9.31207l-7.74301,-1.91408l-0.49759,2.02157l7.74648,1.91408l-1.62281,6.56752zm-0.44211,12.79175c-3.4294,-5.57233 -4.16625,-10.62974 -4.28935,-11.81218l12.97033,3.21094c-2.63359,3.50569 -5.63649,6.34214 -8.68098,8.60123"/>
   <path stroke="null" id="svg_211" fill="#9D0A12" d="m274.70724,67.92907l1.54825,0.38143l-0.0052,0.01041l5.74398,1.41475l5.21171,-21.12771c2.63013,-0.69524 4.6309,-1.32287 5.78039,-1.70256l0.52013,-2.16721c-1.85861,0.28434 -3.71547,0.48892 -5.50992,0.65363l2.16027,-8.74167l5.0418,1.24658l0.48893,-2.00077l-5.0418,-1.24658l2.30244,-9.33288l-5.73877,-1.40955l-2.30245,9.32247l-6.62646,-1.64014l-0.49586,2.01117l6.63513,1.63148l-2.59892,10.53611c-4.98112,0.18031 -8.49893,0.0156 -8.49893,0.0156l0.4005,5.57233c2.53303,-0.36929 4.87363,-0.79753 7.0235,-1.23444l-2.68735,10.89847l0.07802,-0.43345c-0.4161,1.67309 -0.68484,2.2383 -3.90791,1.46157c-1.45117,-0.36409 -2.7827,-0.81833 -2.7827,-0.81833l-0.30341,1.27085c4.02581,1.84127 3.56463,5.42843 3.56463,5.42843"/>
   <path stroke="null" id="svg_212" fill="#9D0A12" d="m112.28949,78.9229c0.23233,-5.14062 -11.37179,-1.62974 -11.37179,-1.62974l-0.08669,1.32807c6.22077,0.94143 6.78424,2.20535 8.81275,2.34059c1.48584,0.06069 2.59199,-0.84955 2.64573,-2.03891"/>
   <path stroke="null" id="svg_213" fill="#9D0A12" d="m104.18586,87.72871l-0.10576,1.31767c6.2381,0.95184 6.79117,2.20189 8.81275,2.35966c1.49797,0.06241 2.59892,-0.87902 2.63533,-2.06145c0.23753,-5.15103 -11.34231,-1.61587 -11.34231,-1.61587"/>
   <path stroke="null" id="svg_214" fill="#9D0A12" d="m157.23746,80.02904l-1.28819,-1.61067l-3.28723,2.59372l-5.55499,-7.04951l3.28376,-2.58678l-1.29166,-1.64015l-3.28376,2.58158l-6.86399,-8.71565l-3.48835,2.76883l-13.99151,11.01984c-0.02947,-1.47717 -0.10229,-3.06704 -0.28087,-4.73146l18.64149,-14.67982l-1.29686,-1.65748l-5.86881,1.33327l-1.14949,4.18359l0.05895,-0.02601l-10.70256,8.44692c-0.28953,-1.86727 -0.69351,-3.77615 -1.27258,-5.67289l-6.04045,2.70641c0,0 5.10768,9.02947 5.69717,18.84087l1.63667,0.01734c0,0 0.21672,-1.24658 0.38663,-3.26815l4.27894,5.41803l-3.71027,2.92313l1.29166,1.65055l3.71547,-2.9318l5.54113,7.0443l-0.01041,0.0052l1.28646,1.62107l0.0052,-0.0052l0.68484,0.86862l4.63089,-3.65652l-0.67963,-0.87035l10.98516,-8.65324c1.20497,1.59507 1.66442,2.81911 -0.23753,4.30495c-2.52437,1.99557 -6.91774,5.44923 -6.91774,5.44923l0.82181,1.02466c0,0 6.12194,-4.06569 8.32556,-1.27433c0,0 7.91292,-6.3716 2.63533,-13.15757l3.30977,-2.61453zm-32.63647,-2.45849l10.98689,-8.67057l5.58447,7.08591l-2.4134,1.89847c0.0104,-0.06068 0.03987,-0.11269 0.04854,-0.16991c0.22713,-5.1701 -11.36139,-1.61067 -11.36139,-1.61067l-0.10056,1.28473c6.2381,0.95357 6.78597,2.23309 8.81276,2.34752c0.11096,0.0052 0.18551,-0.02601 0.29127,-0.02601l-6.26411,4.93951l-5.58447,-7.07898zm21.06703,8.95145c0.0052,-0.02601 0.02081,-0.05548 0.02081,-0.08669c0.21672,-5.13023 -11.35792,-1.60027 -11.35792,-1.60027l-0.10229,1.27432c6.23983,0.95877 6.78771,2.22789 8.83009,2.35099c0.06415,0.0052 0.10576,-0.02081 0.17511,-0.02081l-6.20169,4.88749l-5.54633,-7.0391l10.99037,-8.67058l5.49605,6.96802l-0.02081,0.0052c0.02081,0.02601 0.03641,0.05548 0.06068,0.08149l-2.34405,1.84993z"/>
   <path stroke="null" id="svg_215" fill="#9D0A12" d="m114.533,101.25384l1.16682,1.48064c0,0 4.4922,-2.1204 10.61934,5.66595c1.9869,2.5053 3.47274,4.34309 3.47274,4.34309l3.06703,-2.41514c0,0 -7.23328,-9.4057 -9.54613,-12.64091c-2.15161,-3.01503 -7.69273,-19.95395 -8.56135,-22.65343l-1.62801,1.30033c1.34194,4.36389 5.36429,17.70005 5.13716,20.71507c-0.21325,2.82951 -3.7276,4.20439 -3.7276,4.20439"/>
   <path stroke="null" id="svg_216" fill="#9D0A12" d="m396.19417,93.2577l-2.6544,-5.39029l-4.31709,-0.17164l0.03121,0.05201l-9.2826,-7.40839c5.11982,-4.69851 8.43825,-9.30861 9.36929,-10.66615l-5.49951,-4.37777c-2.93354,4.46619 -5.95029,8.06723 -8.95318,10.99036l-14.7093,-11.73761l-1.28645,1.61587l14.45269,11.5417c-12.99633,11.68387 -25.58696,10.90193 -31.43843,9.66229l-1.50491,1.89847c15.43401,6.99749 28.77189,0.24793 37.65746,-7.24542c-11.76709,16.60951 -5.14063,33.18261 -5.14063,33.18261c4.19399,-2.74629 7.4136,0.83394 7.4136,0.83394l1.05933,-1.34887c-8.41745,-13.37776 -2.13081,-29.91445 -1.40955,-31.67769l14.91215,11.90059l1.29165,-1.62627l-0.08322,-0.06242l0.09189,0.03468z"/>
  </g>
 </g>
</svg>